<svg width="48" height="48" viewBox="0 0 48 48" fill="none" xmlns="http://www.w3.org/2000/svg">
<circle cx="24" cy="24" r="24" fill="#F35200"/>
<path d="M38.8245 20.0896C38.6933 20.1308 38.5651 20.1858 38.4384 20.2393C37.5901 20.5967 36.7433 20.9602 35.8309 21.116C35.658 21.1451 35.5119 21.2352 35.3941 21.365C35.0796 21.7148 34.7024 21.976 34.2999 22.2021C33.9525 22.3976 33.5872 22.5549 33.2145 22.6955C33.3234 22.5977 33.4471 22.5244 33.5738 22.4541C34.1046 22.1578 34.6144 21.8294 35.1243 21.4964C35.2465 21.417 35.3718 21.3375 35.4672 21.2214C35.4881 21.197 35.5164 21.168 35.4985 21.1374C35.4776 21.1023 35.4344 21.1084 35.4031 21.1252C35.3285 21.1634 35.2555 21.2062 35.1809 21.2474C35.3241 21.1084 35.4776 20.9877 35.6312 20.8655C36.0397 20.5417 36.4482 20.2179 36.8134 19.8406C36.9014 19.7489 36.9878 19.6542 37.049 19.5397C37.0668 19.5045 37.0952 19.4648 37.0639 19.4281C37.0281 19.3854 36.9804 19.4113 36.9446 19.4312C36.873 19.4724 36.8015 19.5167 36.7344 19.5656C36.4392 19.7886 36.147 20.0147 35.8503 20.2362C35.5715 20.4439 35.3196 20.6792 35.0975 20.9495C35.0497 21.0061 34.9976 21.058 34.9469 21.113C35.0035 20.9893 35.0721 20.8777 35.1377 20.7647C35.5641 20.0315 35.8533 19.2311 36.1977 18.4582C36.2409 18.3589 36.2871 18.2611 36.3035 18.1512C36.311 18.1023 36.3185 18.0503 36.2722 18.0183C36.223 17.9831 36.1738 18.0045 36.1291 18.0335C36.0561 18.0824 35.9935 18.1435 35.9338 18.2077C35.7847 18.3696 35.6595 18.5498 35.5462 18.7392C35.2316 19.2678 34.9991 19.8345 34.7665 20.4042C34.6487 20.6914 34.5339 20.9801 34.4176 21.2688C34.3878 21.3711 34.3356 21.4613 34.2775 21.5483C34.27 21.5621 34.2626 21.5743 34.2522 21.5865C34.2536 21.5835 34.2551 21.5804 34.2566 21.5773C34.2492 21.588 34.2417 21.5987 34.2343 21.6094C34.2894 21.4765 34.3461 21.3452 34.4012 21.2123C34.4117 21.1756 34.4206 21.1374 34.4311 21.1008C34.4504 20.9893 34.4713 20.8762 34.4907 20.7647C34.4877 20.7006 34.4847 20.6364 34.4788 20.5722C34.4758 20.531 34.4698 20.4837 34.4296 20.4699C34.3848 20.4546 34.3446 20.4821 34.3163 20.5173C34.2805 20.56 34.2462 20.6043 34.2194 20.6532C34.1448 20.7876 34.1016 20.9343 34.0464 21.0763C33.945 21.3375 33.8854 21.614 33.6379 21.8004C33.5067 21.8996 33.4233 22.0661 33.3204 22.2021C33.1907 22.3747 33.0386 22.5244 32.8538 22.6619C32.8821 22.532 32.9357 22.4343 32.9924 22.3396C33.1445 22.0814 33.3085 21.8294 33.4531 21.5667C33.9495 20.67 34.2104 19.6985 34.3014 18.6766C34.3148 18.5239 34.3267 18.3711 34.2969 18.2184C34.2864 18.168 34.2805 18.1084 34.2179 18.0977C34.1612 18.087 34.1329 18.1359 34.109 18.1756C34.0658 18.2474 34.0255 18.3222 33.9927 18.3986C33.6484 19.1929 33.4158 20.0285 33.1489 20.8503C33.0923 21.0229 33.052 21.2031 32.9417 21.3879C32.9611 21.252 32.9566 21.1481 32.9507 21.0427C32.9432 20.9388 32.9313 20.8472 32.7852 20.9022C32.8955 20.4668 32.9685 20.0361 33.0327 19.6038C33.0625 19.4052 33.0878 19.2036 33.0744 19.0004C33.0699 18.9332 33.0804 18.8355 33.0177 18.8156C32.9402 18.7912 32.9044 18.8874 32.8687 18.9455C32.6212 19.3365 32.4527 19.7673 32.3036 20.2056C32.1009 20.8029 31.9831 21.4215 31.8817 22.0448C31.8236 22.4037 31.7565 22.7612 31.6417 23.1064C31.5687 23.3279 31.5135 23.5631 31.2645 23.6593C30.7338 23.8625 30.209 24.0825 29.6634 24.2428C29.635 24.252 29.6008 24.281 29.5605 24.2398C29.6992 24.1054 29.8348 23.9709 29.9735 23.8396C30.3656 23.4684 30.6682 23.0376 30.8232 22.5091C30.8724 22.3426 30.9142 22.1731 30.8814 21.9974C30.8724 21.9485 30.859 21.8951 30.8113 21.8798C30.7561 21.8615 30.7248 21.9119 30.698 21.9485C30.625 22.0432 30.5713 22.1517 30.5161 22.2586C30.3685 22.5427 30.2269 22.8299 30.0689 23.1094C29.7006 23.7601 29.1192 24.1634 28.4931 24.5132C28.3455 24.5957 28.1874 24.6461 28.022 24.6598C27.6835 24.6873 27.366 24.7851 27.0559 24.9211C26.9724 24.9577 26.8874 24.9898 26.8039 25.0234C26.4789 25.1548 26.1286 25.1563 25.7887 25.225C25.7932 25.1471 25.9452 25.0707 25.7842 24.9928C26.0198 24.8004 26.2568 24.6201 26.4804 24.4216C26.7995 24.139 27.1692 23.974 27.5747 23.8823C28.0369 23.7785 28.4931 23.6563 28.9224 23.447C29.3145 23.2561 29.7066 23.0621 30.0227 22.7474C30.1673 22.6023 30.288 22.4389 30.3328 22.2296C30.3462 22.1654 30.3611 22.0952 30.3014 22.0509C30.2433 22.0081 30.1867 22.0539 30.1375 22.0814C29.887 22.225 29.638 22.3732 29.3384 22.3793C29.3115 22.3793 29.2847 22.393 29.2579 22.3991C28.985 22.4725 28.7182 22.5626 28.426 22.6833C28.5482 22.5 28.6809 22.3686 28.7912 22.2204C28.9403 22.0234 29.1237 21.8798 29.3473 21.7866C29.5709 21.6934 29.7811 21.5758 29.9839 21.4399C30.4267 21.1451 30.7472 20.7342 31.0185 20.279C31.1229 20.1033 31.2258 19.9261 31.2645 19.7199C31.275 19.6649 31.2943 19.5992 31.2332 19.5672C31.1795 19.5397 31.1363 19.5855 31.0976 19.6191C30.9693 19.7336 30.8635 19.8681 30.7561 20.004C30.7144 20.0575 30.6712 20.1079 30.6041 20.1339C30.3656 20.227 30.1583 20.3737 29.96 20.5371C29.8259 20.6471 29.6902 20.7571 29.5426 20.8777C29.6917 20.3844 29.8393 19.9108 29.9779 19.4358C30.0271 19.2662 30.0883 19.0982 30.0838 18.9149C30.0838 18.8706 30.0883 18.8156 30.0391 18.8019C29.9914 18.7881 29.963 18.8339 29.9377 18.8706C29.8557 18.9913 29.805 19.1272 29.7528 19.2616C29.635 19.5641 29.5456 19.8772 29.398 20.2072C29.4338 19.7184 29.4383 19.2647 29.3995 18.811C29.3831 18.6262 29.3682 18.4414 29.3026 18.2672C29.2534 18.1405 29.1863 18.1267 29.0909 18.2199C29.0357 18.2734 28.997 18.3375 28.9642 18.4078C28.8225 18.7072 28.7927 19.0264 28.8106 19.3533C28.833 19.7856 28.9269 20.2056 29.0134 20.6272C29.0387 20.7525 29.0521 20.8869 28.9746 20.9893C28.7778 21.2505 28.5408 21.4735 28.2963 21.7087C28.2978 21.6415 28.347 21.6033 28.3306 21.5392C28.2635 21.6278 28.2009 21.7087 28.1293 21.8034C28.1323 21.698 28.1949 21.6247 28.183 21.5208C28.1248 21.6064 28.0741 21.6812 28.0235 21.7561C28.1606 21.2856 28.2381 20.8151 28.1278 20.3278C28.1204 20.8457 28.0294 21.3467 27.858 21.834C27.8654 21.7484 27.8848 21.6659 27.8938 21.5819C27.9519 21.0885 27.9787 20.5936 27.8938 20.1002C27.8341 19.7474 27.7447 19.4068 27.527 19.115C27.3943 18.9378 27.2303 18.8003 27.0231 18.7316C26.8517 18.6736 26.7726 18.7499 26.801 18.9317C26.8099 18.9867 26.8233 19.0417 26.8367 19.0967C26.9709 19.6237 27.0812 20.1552 27.1558 20.6929C27.2631 21.4567 27.2915 22.2189 27.1185 22.9781C27.0425 23.3095 26.9158 23.6089 26.6504 23.8381C26.3373 24.1099 26.0421 24.4017 25.735 24.6782C25.574 24.8233 25.4055 24.9608 25.2162 25.0799C25.2132 25.0585 25.2102 25.0509 25.2117 25.0448C25.2729 24.8538 25.337 24.6629 25.3966 24.4704C25.7917 23.198 25.5591 22.0325 24.8197 20.9587C24.6467 20.7067 24.432 20.4913 24.1443 20.3721C24.0832 20.3462 24.0191 20.3278 23.9639 20.3691C23.9028 20.4149 23.9237 20.4867 23.9371 20.5493C23.9729 20.7235 24.0474 20.8854 24.113 21.0488C24.3575 21.6705 24.6258 22.28 24.8629 22.9047C24.9076 23.0239 24.8912 23.1064 24.8047 23.195C24.5886 23.4149 24.3635 23.6211 24.1309 23.8228C23.9818 23.9526 23.8268 24.0763 23.6747 24.2031C23.8566 23.7342 23.9296 23.2454 24.0578 22.7719C24.0504 23.1217 23.9117 23.447 23.8745 23.8182C23.9818 23.6654 24.0429 23.5234 24.0862 23.3722C24.1473 23.1583 24.2054 22.9445 24.1682 22.7169C24.1577 22.6527 24.1488 22.5718 24.0757 22.5641C23.9967 22.5549 23.9669 22.6344 23.949 22.7001C23.9147 22.8207 23.8849 22.9414 23.8581 23.0636C23.8044 23.308 23.7463 23.5509 23.6702 23.7892C23.4794 24.3864 23.135 24.889 22.7384 25.3579C22.6147 25.5046 22.485 25.6466 22.3285 25.7597C22.5655 25.4801 22.81 25.2082 23.0172 24.9073C23.2245 24.6033 23.3855 24.278 23.4302 23.9022C23.3661 24.029 23.3154 24.1619 23.2543 24.2887C23.1917 24.417 23.1305 24.5468 23.0143 24.6767C23.0277 24.6278 23.0307 24.6079 23.0366 24.5896C23.2617 23.9007 23.3184 23.1934 23.2334 22.474C23.2245 22.4037 23.2573 22.3808 23.3005 22.3518C23.551 22.1883 23.7925 22.0127 23.9833 21.7774C24.0534 21.6919 24.1413 21.5957 24.0698 21.475C23.9967 21.3543 23.8745 21.3971 23.7686 21.4246C23.539 21.4872 23.3184 21.5743 23.1082 21.6843C23.0172 21.7316 22.9129 21.6965 22.8309 21.7683C22.5133 22.0463 22.157 22.2754 21.8499 22.5672C21.7813 22.6329 21.7187 22.7046 21.6352 22.7566C21.6263 22.7153 21.6486 22.6909 21.6621 22.6634C21.8395 22.3212 22.0944 22.0463 22.4 21.8279C22.7981 21.5437 23.1186 21.1878 23.3691 20.7662C23.5808 20.4103 23.7656 20.0407 23.8223 19.6191C23.8297 19.5595 23.8402 19.4877 23.7805 19.4556C23.7164 19.4205 23.6687 19.4786 23.6285 19.5198C23.4928 19.6557 23.384 19.8146 23.2796 19.975C23.1186 20.2194 22.9576 20.4653 22.7891 20.7235C22.7921 20.6944 22.7936 20.6822 22.7951 20.67C22.7981 20.6043 22.8562 20.5111 22.7921 20.4837C22.7325 20.4577 22.6937 20.5585 22.655 20.6104C22.3777 20.9679 22.1466 21.3559 21.9498 21.7652C21.841 21.9928 21.6486 22.1578 21.5175 22.3686C21.3162 22.6909 21.1462 23.0315 20.9688 23.3691C20.8943 23.5127 20.8153 23.6532 20.699 23.7968C20.7422 23.4883 20.7631 23.2026 20.7601 22.9154C20.7571 22.6588 20.7735 22.3976 20.6334 22.1639C20.6066 22.1211 20.6155 22.0692 20.6155 22.0218C20.62 21.7026 20.5961 21.3864 20.5603 21.0702C20.5186 20.7143 20.4754 20.3584 20.3963 20.0086C20.365 19.8727 20.3114 19.8574 20.21 19.9506C20.1012 20.0498 20.0385 20.1797 19.9938 20.3202C19.8105 20.8869 20.0072 21.4231 20.1176 21.9669C20.1489 21.7438 20.1027 21.5269 20.0743 21.3085C20.0356 21.0106 20.0147 20.7143 20.0982 20.421C20.134 20.2958 20.1712 20.169 20.2801 20.0789C20.3695 20.3065 20.5231 22.0112 20.4441 22.1761C20.365 21.7851 20.289 21.4017 20.2115 21.0168C20.1653 21.585 20.2935 22.1364 20.3337 22.6955C20.3099 22.6634 20.298 22.6298 20.286 22.5962C20.1578 22.2326 20.0535 21.8599 19.8835 21.5117C19.7121 21.1603 19.5376 20.8121 19.2424 20.5463C19.2037 20.5127 19.1664 20.4623 19.1112 20.4821C19.0516 20.5035 19.0486 20.5722 19.0427 20.6272C19.0218 20.809 19.0352 20.9908 19.065 21.1695C19.2231 22.1211 19.5525 23.0132 20.0057 23.8549C20.1101 24.0504 20.1936 24.2306 20.1116 24.4536C20.0997 24.4857 20.1027 24.5254 20.0997 24.5621C20.0728 24.8523 19.9879 25.1212 19.8268 25.364C19.6793 25.587 19.5287 25.8101 19.3975 26.0422C19.2514 26.3019 19.0427 26.4654 18.7713 26.5601C18.339 26.7128 17.8977 26.8304 17.452 26.9297C17.2045 26.9847 16.9555 27.0351 16.6842 27.0932C16.7378 26.9878 16.7841 26.9083 16.8198 26.8258C16.8914 26.6624 17.0032 26.557 17.1687 26.4898C17.5697 26.3264 17.938 26.0988 18.2913 25.8452C18.3748 25.7856 18.4463 25.7749 18.5403 25.7963C18.7177 25.836 18.8951 25.8819 19.0785 25.8467C19.1515 25.833 19.2335 25.8177 19.2529 25.7276C19.2723 25.6405 19.2126 25.5825 19.1515 25.5366C19.0829 25.4847 19.0069 25.4419 18.9294 25.3915C19.2529 25.0463 19.5555 24.6919 19.8522 24.3299C19.8999 24.2719 19.9476 24.2123 19.9938 24.1527C20.0102 24.1313 20.0326 24.1069 20.0147 24.0763C19.9938 24.0412 19.958 24.0488 19.9297 24.0565C19.8924 24.0672 19.8567 24.084 19.8224 24.1038C19.6793 24.1833 19.5481 24.2795 19.4199 24.3803C19.1232 24.614 18.8369 24.863 18.5522 25.112C18.5 25.1578 18.4523 25.2082 18.3673 25.2006C18.169 25.1807 17.9693 25.1609 17.7591 25.2449C17.7844 25.1838 17.8008 25.1395 17.8187 25.0967C18.0364 24.5606 18.3017 24.0458 18.5477 23.5234C18.6178 23.3737 18.6789 23.2209 18.6938 23.0529C18.6983 23.0086 18.6953 22.9613 18.6551 22.9322C18.6103 22.9017 18.5641 22.9139 18.5209 22.9399C18.4389 22.9903 18.3733 23.0606 18.3181 23.14C18.2048 23.3004 18.1184 23.476 18.0349 23.6548C17.9409 23.8518 17.85 24.0504 17.7591 24.2474C17.8098 23.835 17.9007 23.4348 17.9305 23.0239C17.9469 22.807 17.9573 22.5886 17.8843 22.3778C17.8694 22.3365 17.856 22.2876 17.8053 22.28C17.7471 22.2724 17.7248 22.3228 17.7024 22.364C17.6338 22.4847 17.6025 22.6176 17.5697 22.7505C17.449 23.253 17.3983 23.7678 17.3357 24.2826C17.279 24.2688 17.2447 24.2276 17.2045 24.1985C17.1016 24.1237 17.0002 24.0473 16.8839 23.9939C16.6558 23.89 16.5202 23.9832 16.5351 24.2398C16.544 24.388 16.5962 24.527 16.6782 24.6446C16.8198 24.8493 16.8959 25.0585 16.8094 25.306C16.8049 25.3197 16.8094 25.3381 16.8064 25.3549C16.7826 25.6527 16.7542 25.9506 16.7021 26.2454C16.6439 26.5692 16.4814 26.7907 16.1669 26.9053C15.8255 27.029 15.487 27.1634 15.1427 27.278C14.6462 27.4445 14.1319 27.5606 13.6533 27.7836C13.619 27.7989 13.5773 27.7973 13.5385 27.8004C13.5162 27.8019 13.4863 27.8004 13.4774 27.776C13.467 27.75 13.4923 27.7332 13.5072 27.7149C13.5817 27.6201 13.6742 27.5453 13.7711 27.475C14.0722 27.2566 14.4121 27.113 14.7431 26.9526C15.0413 26.8075 15.3171 26.6288 15.5168 26.3508C15.566 26.2821 15.6093 26.2087 15.6212 26.1232C15.6361 26.0193 15.5884 25.9766 15.4915 26.0071C15.3812 26.0407 15.2843 26.1049 15.1844 26.1614C15.0771 26.221 14.9712 26.2821 14.8654 26.3432C15.0159 26.1431 15.174 25.9613 15.3379 25.7826C15.5944 25.503 15.8553 25.2296 16.1087 24.947C16.1683 24.8798 16.2474 24.7866 16.1669 24.6904C16.0938 24.6018 15.9954 24.6568 15.9164 24.6935C15.7494 24.7683 15.6048 24.8829 15.4647 25.002C15.0979 25.3151 14.7834 25.6772 14.4733 26.0865C14.4837 26.0254 14.4912 25.9934 14.4956 25.9598C14.5254 25.7642 14.5612 25.5702 14.5896 25.3747C14.6298 25.1028 14.4956 24.8431 14.5597 24.5743C14.5672 24.5392 14.5657 24.501 14.5612 24.4659C14.5493 24.3834 14.5642 24.2642 14.4807 24.2413C14.3928 24.2184 14.354 24.3314 14.3152 24.4032C14.0171 24.9455 13.8933 25.5351 13.9053 26.1492C13.9127 26.5173 13.8441 26.8396 13.6041 27.1237C13.4625 27.2902 13.3566 27.4873 13.2538 27.6828C13.2299 27.7301 13.2016 27.7714 13.1598 27.805C12.8095 28.0921 12.3936 28.2403 11.9731 28.3976C12.0641 27.9516 12.1252 27.5178 12.1356 27.0764C12.1595 26.0896 11.8211 25.2128 11.3604 24.3727C11.344 24.3421 11.3261 24.2963 11.2844 24.307C11.2411 24.3177 11.2352 24.365 11.2292 24.4063C11.2128 24.5361 11.2337 24.6629 11.2531 24.7912C11.3291 25.2724 11.4573 25.7428 11.5497 26.221C11.6034 26.4959 11.6645 26.7709 11.6824 27.0565C11.6705 27.0504 11.666 27.0504 11.6645 27.0473C11.6049 26.9526 11.5453 26.8579 11.4871 26.7617C11.0324 25.9979 10.4585 25.3442 9.74434 24.8263C9.56842 24.698 9.38505 24.5774 9.17484 24.5163C9.03769 24.4765 8.97954 24.5346 9.00638 24.6797C9.02427 24.7759 9.06303 24.8645 9.10477 24.9516C9.33436 25.4282 9.65787 25.8345 10.0201 26.2087C10.4898 26.693 11.0071 27.1207 11.5378 27.5316C11.8583 27.779 11.8852 28.3839 11.4633 28.6008C11.3679 28.6497 11.2754 28.7016 11.1785 28.7474C10.6731 28.9842 10.1767 29.2408 9.70707 29.5463C9.65638 29.5799 9.60271 29.6105 9.55948 29.667C9.68024 29.6853 9.76671 29.6273 9.85317 29.5723C10.3824 29.2347 10.931 28.9323 11.5095 28.6925C12.1073 28.445 12.7245 28.2418 13.2925 27.9226C13.3522 27.889 13.4192 27.8752 13.4878 27.8905C13.6369 27.9211 13.7756 27.8905 13.9142 27.8355C14.3793 27.6599 14.849 27.4995 15.3245 27.3544C15.5005 27.3009 15.6779 27.2841 15.8612 27.3131C16.0446 27.3421 16.2295 27.3651 16.4143 27.3208C16.9928 27.1833 17.5787 27.0779 18.1497 26.9083C18.6521 26.7586 19.1575 26.612 19.5794 26.2698C19.5824 26.2683 19.5913 26.2759 19.5973 26.2775C19.5794 26.4241 19.4884 26.5387 19.4109 26.6777C19.6107 26.6242 19.7866 26.5646 19.967 26.5326C21.0046 26.3493 22.0363 26.1308 23.0739 25.9384C23.6657 25.8284 24.2442 25.6481 24.8435 25.5855C25.1297 25.5565 25.3564 25.4175 25.5636 25.2296C25.6009 25.1945 25.6381 25.1593 25.6754 25.1242C25.6799 25.1273 25.6843 25.1318 25.6873 25.1349C25.6411 25.2097 25.5934 25.2846 25.5487 25.3579C25.574 25.3869 25.5934 25.3732 25.6113 25.3686C26.1465 25.2602 26.6906 25.1868 27.202 24.9776C27.4062 24.8936 27.6194 24.834 27.8371 24.7912C28.1651 24.7271 28.496 24.6736 28.8196 24.5911C29.5396 24.4048 30.2567 24.2031 30.9529 23.9328C31.6119 23.6777 32.2798 23.4485 32.973 23.308C33.1907 23.2637 33.4113 23.224 33.6528 23.2377C33.5902 23.2881 33.5306 23.2958 33.4754 23.308C32.7718 23.4669 32.08 23.6716 31.3942 23.8976C30.7308 24.1161 30.0883 24.3971 29.4084 24.559C29.3026 24.5835 29.1982 24.614 29.0745 24.6461C29.2579 24.7118 29.4353 24.6568 29.6022 24.7087C29.4457 24.8798 29.2787 24.9409 29.073 24.8019C29.0059 24.7561 28.9194 24.7393 28.8449 24.7041C28.7942 24.6797 28.7465 24.6843 28.6958 24.698C28.2381 24.8325 27.779 24.9592 27.3243 25.1044C26.9337 25.2296 26.5416 25.3488 26.1316 25.3869C25.9661 25.4022 25.8051 25.4419 25.6486 25.4954C25.0761 25.6924 24.4857 25.8131 23.8998 25.9521C22.8145 26.2087 21.7172 26.4012 20.6289 26.6487C19.4049 26.9267 18.1631 27.1283 16.9302 27.3651C15.8225 27.5774 14.7193 27.8004 13.6518 28.1792C12.896 28.4481 12.1461 28.7306 11.4066 29.0453C10.9773 29.2286 10.6865 29.5616 10.4674 30C10.5598 29.9679 10.6046 29.9099 10.6493 29.8564C10.9042 29.5631 11.1979 29.3218 11.5512 29.1645C12.8527 28.5809 14.19 28.112 15.5735 27.7805C15.9432 27.6919 16.301 27.6476 16.6797 27.7439C17.4967 27.9501 18.3256 28.0937 19.1679 28.1319C19.6002 28.1517 20.0341 28.1594 20.459 28.0555C20.5663 28.0295 20.6722 27.9974 20.7631 27.9302C20.8317 27.8798 20.8287 27.8371 20.7452 27.805C20.6781 27.7775 20.608 27.7698 20.5365 27.7622C19.9715 27.7026 19.402 27.7118 18.8369 27.6644C18.3226 27.6217 17.8068 27.5972 17.2924 27.5407C17.2805 27.5407 17.2686 27.5407 17.2567 27.5407C17.1642 27.5392 17.0688 27.5361 16.9481 27.5346C17.036 27.4918 17.0942 27.4873 17.1538 27.4903C17.9245 27.3376 18.6953 27.1802 19.4676 27.0336C19.7449 26.9801 20.0222 26.8992 20.3069 26.9175C20.7407 26.945 21.1507 27.0764 21.5428 27.2642C21.9274 27.4491 22.2793 27.6935 22.6475 27.9119C23.3407 28.3213 24.0727 28.6146 24.8733 28.7047C25.0403 28.723 25.2117 28.7474 25.3713 28.6634C25.4503 28.6222 25.501 28.555 25.492 28.4587C25.4831 28.364 25.41 28.3396 25.334 28.3213C25.2952 28.3121 25.258 28.3014 25.2192 28.2938C24.8539 28.2098 24.4842 28.141 24.1294 28.0142C23.6672 27.8493 23.2409 27.6079 22.7996 27.3971C22.3255 27.1711 21.8499 26.948 21.3326 26.8396C21.185 26.809 21.0359 26.7831 20.8868 26.7556C21.355 26.6487 21.8141 26.6044 22.2345 26.9083C22.2793 26.9404 22.33 26.9633 22.3792 26.9893C22.7071 27.1558 23.0605 27.2367 23.4093 27.3406C23.9624 27.5041 24.514 27.6721 25.0969 27.6919C25.3444 27.6996 25.5934 27.7286 25.8349 27.6522C25.9169 27.6263 26.0064 27.5881 26.0138 27.4827C26.0228 27.3819 25.9452 27.336 25.8737 27.2917C25.6992 27.1833 25.5025 27.139 25.3072 27.0886C25.1447 27.0473 24.9807 27.0107 24.8182 26.971C24.9926 26.8992 25.17 26.8533 25.3429 26.7999C25.41 26.7785 25.4548 26.7816 25.5084 26.835C25.5964 26.9236 25.6978 26.8885 25.7291 26.7678C25.7574 26.6594 25.738 26.5585 25.6664 26.4715C25.6038 26.3936 25.5278 26.3294 25.4428 26.2775C25.2088 26.1354 24.9628 26.0209 24.6959 25.9567C24.7138 25.9292 24.7391 25.9292 24.7615 25.9338C24.8897 25.9582 25.0164 25.9842 25.1447 26.0086C25.1655 26.0132 25.1939 26.03 25.2088 26.0041C25.2296 25.9704 25.1983 25.9506 25.1775 25.9368C25.1208 25.9002 25.0612 25.8666 24.9836 25.8223C25.3921 25.7092 25.7753 25.5763 26.1763 25.5168C26.3284 25.4939 26.473 25.5198 26.6176 25.5718C26.8755 25.6649 27.1155 25.7902 27.3362 25.9552C28.1576 26.5646 29.0119 27.11 29.975 27.4567C30.2463 27.5545 30.5176 27.6538 30.8039 27.6965C30.8963 27.7103 31.0051 27.7393 31.0633 27.64C31.1259 27.5346 31.0439 27.4491 30.9857 27.3712C30.8933 27.2444 30.777 27.1405 30.6563 27.0428C29.8005 26.3538 28.8285 25.9002 27.7924 25.5809C27.5061 25.4923 27.2124 25.4496 26.9143 25.3885C26.9411 25.3488 26.9784 25.3426 27.0097 25.3335C27.439 25.2006 27.8684 25.0692 28.2978 24.9379C28.5408 24.863 28.7391 24.9348 28.8971 25.1318C29.0626 25.3381 29.2444 25.5275 29.4681 25.6711C29.9019 25.9506 30.376 26.1125 30.8769 26.2072C31.3316 26.2927 31.7908 26.3355 32.2529 26.2927C32.3588 26.2821 32.4646 26.2622 32.5526 26.195C32.6674 26.1079 32.6704 25.9949 32.5616 25.9048C32.4557 25.8177 32.332 25.7658 32.2067 25.7169C31.5851 25.4755 30.9395 25.3258 30.291 25.1838L30.0853 25.1456C30.0942 25.1441 30.1017 25.1425 30.1106 25.141C30.1106 25.141 30.1091 25.141 30.1076 25.141C30.1076 25.141 30.1106 25.141 30.1121 25.141C30.1658 25.1303 30.2209 25.1181 30.2746 25.141C30.6756 25.1471 31.0782 25.1578 31.4762 25.0906C31.5925 25.0707 31.7103 25.0509 31.8132 24.9867C31.9101 24.9256 31.9101 24.8416 31.8132 24.779C31.7282 24.724 31.6298 24.7087 31.5329 24.695C31.4181 24.6782 31.2988 24.695 31.184 24.6629C31.2332 24.4995 31.1721 24.4307 30.9857 24.4368C30.7726 24.4445 30.5668 24.5025 30.3596 24.5468C30.1852 24.5835 30.0107 24.6125 29.811 24.6033C29.8423 24.585 29.8557 24.5743 29.8691 24.5697C30.3357 24.4109 30.7904 24.2184 31.2571 24.0595C32.0621 23.7861 32.8761 23.6746 33.7229 23.7953C34.2805 23.8762 34.8395 23.9618 35.4031 23.9969C35.8056 24.0214 36.2051 24.0183 36.6017 23.9266C36.6941 23.9053 36.7851 23.8793 36.8641 23.8228C36.9491 23.7617 36.9521 23.7036 36.8701 23.641C36.8104 23.5952 36.7404 23.5646 36.6688 23.5417C36.1187 23.3569 35.5507 23.305 34.9782 23.2897C34.6592 23.2805 34.3401 23.2881 34.0226 23.2851C33.9868 23.2851 33.9182 23.2943 33.9197 23.2591C33.9242 23.1461 33.8407 23.1675 33.7855 23.1537C33.6856 23.1262 33.5828 23.1278 33.4799 23.1323C33.1266 23.1476 32.7896 23.2408 32.4512 23.3355C32.3826 23.3554 32.3141 23.3829 32.2336 23.3752C32.2857 23.3218 32.3394 23.2897 32.3961 23.2607C32.8612 23.0147 33.3413 22.7963 33.8183 22.5763C33.9659 22.5091 34.115 22.5 34.2686 22.5427C34.3744 22.5733 34.4788 22.6099 34.5831 22.6497C35.0274 22.8207 35.4761 22.975 35.9517 23.0147C36.2663 23.0407 36.5823 23.0514 36.8835 22.9292C36.9744 22.8925 37.0803 22.8482 37.0803 22.7276C37.0803 22.6191 36.9759 22.584 36.8939 22.5488C36.2529 22.2662 35.5745 22.1471 34.8828 22.0875C34.85 22.0845 34.8142 22.0967 34.7784 22.0677C34.9394 21.9455 35.0989 21.8279 35.2436 21.6919C35.5969 21.3589 35.5969 21.3604 36.0799 21.4078C36.4646 21.446 36.8492 21.4842 37.2353 21.4292C37.8794 21.3375 38.4354 21.0763 38.8469 20.5417C38.9155 20.4531 38.9736 20.3569 38.9945 20.2423C39.0184 20.1048 38.9647 20.0483 38.832 20.0896H38.8245ZM35.4836 20.6853C35.8593 20.3019 36.2976 20.004 36.7418 19.7138C36.3244 20.195 35.8146 20.5646 35.3196 20.9694C35.3554 20.8533 35.4075 20.7617 35.4836 20.6838V20.6853ZM34.6815 20.8777C34.9842 20.2148 35.2346 19.5259 35.5909 18.8889C35.7713 18.5666 35.9771 18.3283 36.1753 18.2046C36.0516 18.4903 35.9368 18.756 35.822 19.0218C35.743 19.2051 35.658 19.3869 35.5865 19.5733C35.5104 19.7703 35.3926 19.9353 35.2614 20.0987C35.0512 20.3599 34.8723 20.6425 34.6949 20.9282C34.6666 20.9923 34.6278 21.0504 34.5757 21.0977C34.5995 21.0168 34.6293 20.9419 34.68 20.8747L34.6815 20.8777ZM34.3401 20.6654C34.4415 20.9786 33.9987 21.9898 33.6335 22.2708C33.9614 21.7622 34.1031 21.1985 34.3401 20.6654ZM33.6499 21.9317C33.5798 22.1028 33.4635 22.2388 33.3427 22.3747C33.4218 22.2113 33.5306 22.0677 33.6499 21.9317ZM23.6553 19.668C23.6881 20.1995 22.7757 21.5743 22.239 21.8049C22.7295 21.113 23.1484 20.3721 23.6553 19.668ZM22.7042 20.7311C22.567 21.116 22.3076 21.4231 22.072 21.7454C22.2524 21.3864 22.4522 21.0427 22.7042 20.7311ZM11.0906 26.9786C10.5613 26.557 10.0544 26.111 9.637 25.5687C9.42978 25.2983 9.25088 25.0112 9.15993 24.669C10.126 25.1655 10.8028 25.9659 11.3828 26.8686C11.0667 26.5112 10.7492 26.1553 10.363 25.8712C10.7283 26.3218 11.1129 26.7556 11.426 27.252C11.3142 27.1604 11.2024 27.0687 11.0891 26.9786H11.0906ZM11.8837 28.1639C11.9046 26.9587 11.5542 25.8177 11.3425 24.6537C11.8882 25.7658 12.1535 26.9221 11.8837 28.1639ZM15.9835 24.7958C15.9283 24.9837 15.487 25.4633 15.2843 25.5672C15.2589 25.529 15.323 25.5091 15.3007 25.471C15.174 25.5107 15.0994 25.6375 14.9772 25.6848C15.2783 25.3549 15.5899 25.0387 15.9835 24.7973V24.7958ZM15.0517 25.9063C14.9011 26.085 14.7506 26.2653 14.6 26.444C14.7073 26.2225 14.8698 26.0545 15.0517 25.9063ZM14.7088 26.5967C14.9563 26.4318 15.2112 26.2821 15.5019 26.1217C15.3946 26.3309 15.256 26.4592 15.1039 26.5753C14.8504 26.7693 14.5582 26.8931 14.278 27.0412C14.1975 27.084 14.117 27.1252 14.0186 27.1756C14.0663 27.0641 14.1453 27 14.2243 26.9404C14.3838 26.8213 14.5448 26.7052 14.7088 26.5952V26.5967ZM14.4181 24.504C14.43 24.9272 14.1706 25.7047 14.035 25.9781C14.0186 25.5626 14.2213 24.7668 14.4181 24.504ZM13.622 27.252C14.0424 26.6303 14.2109 25.9017 14.4554 25.2036C14.4196 25.8024 14.2541 26.3554 13.9276 26.8549C13.8337 26.9985 13.7353 27.139 13.6384 27.281C13.5788 27.3727 13.5206 27.4643 13.4356 27.5346C13.4908 27.4353 13.5445 27.336 13.622 27.252ZM15.8046 27.1879C15.976 27.1145 16.137 27.0489 16.3234 26.9954C16.1743 27.2459 16.0342 27.2963 15.8046 27.1879ZM19.074 25.6161C19.1038 25.6405 19.1455 25.668 19.1306 25.7108C19.1202 25.7444 19.077 25.752 19.0412 25.7597C18.9294 25.7841 18.6685 25.7581 18.5224 25.7031C18.5567 25.6711 18.582 25.6466 18.6088 25.6222C18.7848 25.4648 18.8891 25.4633 19.074 25.6161ZM19.6047 24.4078C19.1515 25.0967 18.5224 25.5733 17.8247 25.9674C18.3763 25.3976 18.9741 24.8829 19.6047 24.4078ZM18.3077 25.2999C18.0796 25.503 17.8619 25.6833 17.6309 25.8482C17.7695 25.6436 17.9439 25.4725 18.1184 25.3029C18.1646 25.2586 18.2317 25.2846 18.3077 25.2999ZM17.856 25.3472C17.8068 25.3915 17.7591 25.4343 17.689 25.4969C17.7248 25.3961 17.774 25.3533 17.856 25.3472ZM18.3301 23.3538C18.3822 23.2637 18.4389 23.1782 18.5328 23.0911C18.5388 23.2102 18.5 23.3034 18.4598 23.389C18.2317 23.8823 17.9916 24.3711 17.7665 24.8661C17.5742 25.2877 17.3819 25.7092 17.1463 26.1094C17.1061 26.1767 17.0584 26.2393 17.0136 26.305C17.0017 26.2989 16.9913 26.2927 16.9794 26.2851C17.4833 25.3335 17.7874 24.2871 18.3301 23.3538ZM17.768 22.5366C17.847 23.2026 17.6592 23.8258 17.4669 24.4475C17.4728 23.7953 17.5608 23.1568 17.768 22.5366ZM16.711 24.4704C16.6678 24.3696 16.6394 24.2673 16.6514 24.1542C16.6573 24.0931 16.6797 24.0656 16.7408 24.0901C16.9555 24.171 17.1359 24.3024 17.2686 24.4949C17.2909 24.527 17.2909 24.5636 17.2895 24.6003C17.2775 25.1502 17.1896 25.6833 16.9212 26.1705C16.8646 26.2729 16.8482 26.2958 16.7721 26.3538C16.8839 25.9521 16.8333 25.5336 16.9153 25.115C17.0032 25.1991 17.0614 25.2938 17.1627 25.3686C17.1359 25.2128 17.0688 25.0921 16.9943 24.9745C16.8914 24.8111 16.787 24.6507 16.7095 24.4735L16.711 24.4704ZM16.3562 27.1818C16.5157 26.9511 16.5977 26.6868 16.8169 26.5265C16.7214 26.809 16.5261 27.0825 16.3562 27.1818ZM30.1032 22.2464C30.1345 22.2311 30.1688 22.2235 30.2105 22.2082C30.1777 22.3487 30.1076 22.4541 30.0271 22.5519C29.7961 22.8314 29.5053 23.0269 29.1863 23.1843C28.7495 23.4012 28.2918 23.5555 27.8118 23.6395C27.7834 23.6441 27.7447 23.6746 27.7238 23.6273C27.7238 23.6273 27.7208 23.6273 27.7193 23.6273L27.7208 23.6242C27.6045 23.67 27.4882 23.7143 27.3734 23.7601C27.6746 23.6013 27.9668 23.4241 28.2679 23.2668C28.8881 22.9445 29.4755 22.5595 30.1017 22.2479L30.1032 22.2464ZM29.0432 22.6665C28.5616 22.9689 28.0712 23.2545 27.5568 23.4944C27.9698 23.0636 28.5035 22.8589 29.0432 22.6665ZM29.24 21.6751C29.2981 21.5758 29.6962 21.2382 29.8706 21.1527C29.6872 21.362 29.4696 21.5269 29.24 21.6751ZM31.0737 19.8528C30.9902 20.3355 30.0942 21.3925 29.5814 21.5987C29.8825 21.3161 30.1896 21.0381 30.4133 20.6838C30.6041 20.3813 30.8262 20.1079 31.0737 19.8543V19.8528ZM30.3432 20.418C30.2165 20.5967 29.3995 21.3986 29.2817 21.4582C29.3235 21.3314 29.3652 21.2199 29.4487 21.1405C29.7185 20.8777 30.0137 20.6486 30.3432 20.418ZM29.9317 19.089C29.9243 19.5198 29.2922 21.2688 29.07 21.4826C29.3786 20.6929 29.5933 19.8757 29.9317 19.089ZM29.1639 18.3207C29.3443 18.8996 29.3041 19.4877 29.228 20.0804C29.2042 19.8986 29.1818 19.7168 29.158 19.5351C29.0805 19.8681 29.1356 20.2056 29.0954 20.5402C28.985 19.7978 28.7614 19.0524 29.1639 18.3222V18.3207ZM28.2993 21.921C28.5124 21.6675 28.7495 21.4368 29.0104 21.1863C28.9821 21.5086 28.8926 21.7652 28.6928 21.9791C28.3932 22.3014 28.0622 22.5886 27.7193 22.8604C27.6165 22.9414 27.5151 23.0239 27.4062 23.1125C27.4062 23.0483 27.442 23.0025 27.4704 22.9567C27.7059 22.5779 28.0145 22.2586 28.2993 21.921ZM27.281 20.6333C27.2109 20.1018 27.0991 19.5794 26.9545 19.0631C26.9381 19.005 26.8904 18.9271 26.9471 18.8844C26.9993 18.8462 27.0693 18.8996 27.1215 18.9302C27.4122 19.0997 27.5717 19.3747 27.6686 19.6894C27.8058 20.1323 27.8446 20.5891 27.8073 21.0504C27.7611 21.6293 27.6612 22.1945 27.4018 22.7199C27.3541 22.8162 27.3019 22.9093 27.2512 23.004C27.4271 22.2143 27.3854 21.4231 27.281 20.6318V20.6333ZM24.0593 20.502C24.2144 20.5432 24.3143 20.6181 24.4067 20.7021C24.8077 21.0656 25.0567 21.5285 25.2341 22.0356C25.3429 22.3472 25.407 22.671 25.4324 23.001C25.4354 23.0376 25.4428 23.0728 25.4219 23.1186C25.3027 22.6252 25.173 22.1471 24.9136 21.7225C25.1611 22.5351 25.4339 23.3401 25.3429 24.2138C25.0597 22.9338 24.4783 21.7606 24.0608 20.5005L24.0593 20.502ZM23.1141 21.8217C23.3571 21.7057 23.6002 21.5957 23.864 21.5422C23.8998 21.5346 23.9416 21.5224 23.9594 21.5605C23.9743 21.5911 23.9401 21.6186 23.9222 21.643C23.7343 21.9042 23.4734 22.0784 23.2096 22.2556C23.1663 22.1272 23.1499 21.9974 23.0873 21.8844C23.0694 21.8508 23.0813 21.8355 23.1126 21.8202L23.1141 21.8217ZM22.804 22.0341C22.8085 22.0188 22.8115 22.002 22.8175 21.9882C22.8398 21.9333 22.8592 21.8523 22.9173 21.8508C22.9815 21.8492 22.9949 21.9333 23.0098 21.9882C23.1022 22.3289 23.1201 22.6787 23.1231 23.03C23.1261 23.5463 23.0679 24.055 22.9129 24.5468C22.8413 24.7744 22.7325 24.9837 22.6058 25.1838C22.5745 25.2617 22.5193 25.3197 22.4507 25.3701C22.4954 25.2983 22.5402 25.225 22.5849 25.1532C22.8175 24.5987 22.8682 24.0198 22.8055 23.4256C22.7429 23.8992 22.6773 24.3711 22.5402 24.8309C22.5476 24.6553 22.5566 24.4796 22.561 24.3039C22.5759 23.78 22.5685 23.2545 22.652 22.7337C22.6907 22.4984 22.731 22.2632 22.804 22.0356V22.0341ZM21.6084 22.4144C21.4742 22.6481 21.3311 22.8742 21.2059 23.1262C21.2059 22.9918 21.4504 22.558 21.6084 22.4144ZM20.4038 24.3253C20.4903 23.7143 20.4947 23.0942 20.5902 22.4832C20.6364 23.1079 20.6707 23.7327 20.4038 24.3253ZM20.4113 22.7092C20.4157 22.7978 20.4366 22.8864 20.3904 22.9842C20.3785 22.8818 20.374 22.7932 20.4113 22.7092ZM19.7329 22.17C19.8865 22.7382 20.052 23.3034 20.1265 23.8946C19.6122 22.8849 19.1858 21.8431 19.0978 20.6547C19.1918 20.7021 19.232 20.7555 19.2752 20.8044C19.5689 21.1466 19.7538 21.5529 19.9133 21.9714C20.1191 22.5106 20.2637 23.0667 20.289 23.6471C20.292 23.7265 20.289 23.8075 20.2771 23.89C20.1533 23.2973 19.9879 22.7184 19.7329 22.17ZM19.5883 26.0743C19.5451 26.1476 19.4869 26.2072 19.3915 26.279C19.4661 26.1522 19.5197 26.0514 19.5824 25.9552C19.879 25.4969 20.1787 25.0387 20.4769 24.5819C20.4858 24.5682 20.4977 24.559 20.5082 24.5468C21.109 23.4699 21.9304 22.5275 22.6251 22.1227C22.5938 22.3014 22.5625 22.4725 22.5327 22.6451C22.5253 22.6909 22.4835 22.7062 22.4552 22.7321C21.9185 23.2072 21.3952 23.699 20.8794 24.197C20.7512 24.3207 20.6408 24.4643 20.5231 24.5987C20.1861 25.0738 19.8835 25.5718 19.5898 26.0758L19.5883 26.0743ZM21.346 26.1782C20.9554 26.2775 20.5589 26.3325 20.1608 26.3829C19.9789 26.4058 19.797 26.4363 19.6137 26.4913C19.639 26.4348 19.6688 26.3936 19.6763 26.3477C19.7493 25.9155 20.0087 25.5794 20.2324 25.225C20.6558 24.5529 21.2282 24.0214 21.8007 23.4913C22.0169 23.2927 22.2375 23.0972 22.4776 22.8818C22.4671 23.1323 22.4522 23.3508 22.4477 23.5692C22.4418 23.9801 22.4358 24.3925 22.4388 24.8034C22.4448 25.5519 21.8648 26.0468 21.3445 26.1782H21.346ZM24.0385 25.6252C23.539 25.7398 23.0307 25.8009 22.5357 25.9338C22.4164 25.9659 22.2972 25.9979 22.1511 26.0377C22.2808 25.92 22.3941 25.8238 22.5014 25.7199C22.7891 25.4389 23.0635 25.141 23.2915 24.8095C23.5077 24.4964 23.7686 24.2337 24.0578 23.9939C24.3635 23.7418 24.6527 23.4684 24.9479 23.1736C25.0805 23.5799 25.2341 23.9664 25.2445 24.3834C25.252 24.6858 25.0999 24.9348 24.9121 25.1639C24.681 25.4435 24.3694 25.5519 24.0399 25.6283L24.0385 25.6252ZM25.3787 25.1593C25.249 25.2678 25.1074 25.3533 24.9807 25.4236C25.0955 25.335 25.2267 25.2311 25.3578 25.1288C25.8006 24.7484 26.2464 24.3696 26.6862 23.9847C26.9262 23.7754 27.1468 23.5463 27.3317 23.282C27.369 23.2286 27.4152 23.1828 27.4704 23.1522C27.8416 22.9536 28.1457 22.6665 28.4498 22.3793C28.5199 22.3075 28.5885 22.2372 28.6585 22.1654C28.6138 22.2647 28.5438 22.338 28.4662 22.4053C28.177 22.7535 27.8386 23.0514 27.4957 23.3401C26.9665 23.7861 26.4983 24.3039 25.9437 24.7209C25.7529 24.8645 25.5666 25.0112 25.3772 25.1563L25.3787 25.1593ZM28.8881 24.4934C28.8524 24.5086 28.8181 24.5239 28.7823 24.5392C28.7778 24.5331 28.7733 24.527 28.7674 24.5193C28.9582 24.3757 29.1416 24.223 29.3384 24.0916C29.808 23.777 30.1285 23.3401 30.367 22.8284C30.4833 22.5779 30.6175 22.3365 30.7591 22.0616C30.7726 22.2785 30.7129 22.445 30.6578 22.6115C30.4669 23.1873 30.0689 23.6028 29.6321 23.9862C29.404 24.1863 29.1684 24.3742 28.8866 24.4934H28.8881ZM20.4888 27.8829C20.4888 27.8829 20.4992 27.892 20.5156 27.9058C20.3144 27.9837 20.1101 28.0036 19.9059 28.0142C19.0591 28.057 18.2242 27.9516 17.3938 27.7912C17.3744 27.7882 17.3565 27.7805 17.3372 27.7744C18.3882 27.8905 19.4422 27.7821 20.4888 27.8829ZM20.9957 26.8381C21.5711 26.9526 22.1168 27.1588 22.6415 27.4246C22.9725 27.5927 23.299 27.7698 23.63 27.9363C24.119 28.1823 24.6408 28.3197 25.1715 28.4282C25.2371 28.4419 25.3042 28.4481 25.3668 28.4908C25.3072 28.5825 25.2132 28.5825 25.1253 28.5871C24.839 28.5993 24.5617 28.5351 24.2844 28.4694C23.5793 28.3029 22.9591 27.944 22.3493 27.5652C21.8022 27.2261 21.2253 26.9664 20.5887 26.8671C20.5827 26.8671 20.5782 26.8595 20.5648 26.8472C20.7139 26.8045 20.857 26.809 20.9972 26.8381H20.9957ZM25.7097 27.3651C25.7663 27.388 25.8543 27.4078 25.8483 27.4705C25.8439 27.5239 25.7514 27.5224 25.6948 27.5331C25.3772 27.5927 25.0582 27.5606 24.7406 27.5239C24.3828 27.4827 24.0325 27.4063 23.6896 27.2887C24.1577 27.281 24.6214 27.3406 25.0895 27.3544C24.6184 27.2062 24.1279 27.1741 23.6434 27.0916C23.7507 27.0626 23.861 27.0657 23.9699 27.0641C24.0802 27.0641 24.1905 27.0596 24.3008 27.0672C24.7824 27.1039 25.2565 27.1756 25.7082 27.3635L25.7097 27.3651ZM25.6053 26.7143C25.4995 26.5341 25.334 26.4363 25.1745 26.3187C25.4711 26.3309 25.6202 26.4669 25.6053 26.7143ZM24.9926 26.3462C25.1238 26.4394 25.2505 26.5402 25.3728 26.6762C25.0746 26.7403 24.7913 26.7861 24.5066 26.8152C24.2218 26.8442 23.9356 26.8595 23.6449 26.8625C23.794 26.7968 23.9416 26.7296 24.0906 26.6639C24.3366 26.5555 24.5826 26.4501 24.8271 26.3416C24.8853 26.3157 24.9359 26.308 24.9926 26.3477V26.3462ZM24.7958 26.2286C24.3948 26.3676 24.0116 26.502 23.6449 26.6792C23.5271 26.7357 23.4019 26.78 23.296 26.8549C23.0575 27.0229 22.819 27.0046 22.57 26.8915C22.3657 26.7984 22.1555 26.7174 21.9483 26.6288C21.8529 26.5891 21.75 26.5784 21.6337 26.5524C21.7321 26.5081 21.8261 26.5035 21.914 26.4929C22.652 26.4012 23.381 26.2576 24.1026 26.0713C24.4007 25.9949 24.5304 26.0254 24.7958 26.2286ZM27.2989 25.5626C27.2989 25.5626 27.3034 25.5641 27.3064 25.5657C28.3991 25.8498 29.4174 26.3019 30.3402 26.971C30.537 27.113 30.7219 27.2688 30.8709 27.4643C30.8903 27.4903 30.9321 27.5178 30.9067 27.5545C30.8873 27.582 30.8471 27.5606 30.8188 27.5545C30.3387 27.4659 29.887 27.2856 29.4427 27.0871C28.6899 26.7525 28.0026 26.3004 27.3123 25.8513C27.208 25.7826 27.1021 25.7154 27.0007 25.642C27.9683 25.9032 28.8255 26.3997 29.6514 26.9618C28.9552 26.2958 28.1084 25.9093 27.2348 25.5733L26.8308 25.4633C26.8338 25.4526 26.8368 25.4404 26.8397 25.4297C26.9814 25.4618 27.123 25.4923 27.2587 25.5443C27.2721 25.5427 27.287 25.5534 27.3004 25.5611L27.2989 25.5626ZM30.4505 25.3457C31.1065 25.4862 31.7565 25.6497 32.3663 25.9445C32.4214 25.9704 32.5138 25.9903 32.5049 26.0529C32.496 26.1201 32.4035 26.1263 32.3394 26.1385C32.0308 26.195 31.7192 26.1782 31.4091 26.1492C30.8009 26.0926 30.212 25.9521 29.6738 25.6405C29.477 25.5275 29.2951 25.3961 29.1416 25.225C29.0402 25.1135 28.9373 25.0066 28.8389 24.889C29.2057 25.0906 29.5068 25.4053 29.9168 25.5382C30.3164 25.668 30.7189 25.7734 31.1333 25.833C30.625 25.5932 30.0435 25.5427 29.5814 25.1807C29.8706 25.2342 30.1613 25.2815 30.449 25.3442L30.4505 25.3457ZM31.6879 24.8722C31.2496 25.0417 30.7919 25.0081 30.3357 24.9837C30.7815 24.8874 31.2183 24.695 31.6879 24.8722ZM30.9485 24.6033C30.4475 24.7118 29.9958 24.8981 29.4994 24.9684C29.6872 24.7423 30.5966 24.5086 30.9485 24.6033ZM36.7553 23.699C36.6971 23.7678 36.642 23.7708 36.5928 23.7831C36.2305 23.8762 35.8608 23.8793 35.491 23.8655C34.9707 23.8472 34.4564 23.754 33.9391 23.6975C33.6737 23.6685 33.4083 23.6486 33.143 23.6257C34.3491 23.2225 35.5417 23.3523 36.7553 23.699ZM32.9477 19.0631C32.9849 19.3655 32.6868 21.0855 32.3663 21.5682C32.4855 21.0427 32.6257 20.5463 32.6629 20.03C32.4453 20.7296 32.2723 21.4414 32.0412 22.1364C31.9921 21.5285 32.5079 19.7856 32.9477 19.0631ZM31.8474 22.917C32.0591 22.5931 32.2559 22.2601 32.4289 21.9134C32.4974 21.7118 32.563 21.5086 32.6331 21.3085C32.6674 21.2138 32.7285 21.1359 32.806 21.0656C32.8597 21.255 32.6987 22.0631 32.5586 22.2831C32.6063 22.0234 32.6301 21.7851 32.6257 21.5453C32.6152 21.5453 32.6063 21.5422 32.5958 21.5407C32.563 21.669 32.5288 21.7973 32.496 21.9256C32.4468 22.558 32.1337 23.0376 31.6566 23.4287C31.7013 23.2469 31.7461 23.0682 31.8459 22.9154L31.8474 22.917ZM31.834 23.4684C31.8966 23.3508 31.9652 23.279 32.0368 23.2148C32.5034 22.8055 32.7732 22.2678 32.9969 21.6995C33.2488 21.058 33.4233 20.3905 33.6349 19.7352C33.7825 19.28 33.9331 18.8248 34.1389 18.3925C34.1523 18.3635 34.1687 18.3375 34.1955 18.2871C34.2059 18.5575 34.1731 18.7942 34.1389 19.0279C33.9734 20.1461 33.5887 21.1756 32.9641 22.1104C32.8552 22.2724 32.7658 22.448 32.6659 22.616C32.4617 22.9582 32.1888 23.2316 31.8325 23.4669L31.834 23.4684ZM36.7016 22.613C36.7374 22.6283 36.7761 22.642 36.8089 22.6634C36.8477 22.6878 36.9148 22.7001 36.9133 22.7474C36.9133 22.7993 36.8447 22.8055 36.803 22.8207C36.639 22.8818 36.4675 22.9032 36.2931 22.9047C35.8861 22.9109 35.4955 22.8146 35.1079 22.697C34.9007 22.6344 34.6949 22.5611 34.4892 22.4923C34.4504 22.4786 34.4117 22.4618 34.3744 22.445C35.0676 22.5305 35.7475 22.6833 36.4422 22.7337C36.2931 22.639 36.1232 22.6191 35.9607 22.5779C35.7922 22.5351 35.6207 22.5076 35.4508 22.4725C35.2838 22.4373 35.1183 22.4007 34.9528 22.3671C34.7829 22.3335 34.6114 22.3029 34.437 22.2708C34.525 22.222 34.6219 22.225 34.7158 22.225C35.4001 22.2311 36.0635 22.3533 36.7016 22.613ZM38.7604 20.4455C38.4533 20.8732 38.0255 21.1023 37.5365 21.2321C37.2279 21.3146 36.9118 21.3299 36.5943 21.3253C36.5853 21.3253 36.5764 21.3116 36.5525 21.2932C36.6345 21.2734 36.7031 21.255 36.7717 21.2382C36.7732 21.2306 36.7746 21.2245 36.7761 21.2169L36.5525 21.1756C36.882 21.0794 37.2189 21.0702 37.5484 20.9572C37.4694 20.9098 37.3933 20.9495 37.3218 20.9282C37.532 20.7449 38.5979 20.2561 38.8648 20.2209C38.8588 20.311 38.8067 20.3783 38.7589 20.4455H38.7604Z" fill="#F4EDDC"/>
</svg>
