<svg width="18" height="19" viewBox="0 0 18 19" fill="none" xmlns="http://www.w3.org/2000/svg">
<path d="M7.1295 0.36312C7.23067 -0.12104 7.92714 -0.12104 8.02831 0.36312L9.12931 5.63176C9.16646 5.80956 9.30639 5.94849 9.48548 5.98538L14.7921 7.0785C15.2797 7.17896 15.2797 7.87044 14.7921 7.97089L9.48547 9.06401C9.30639 9.1009 9.16646 9.23983 9.12931 9.41763L8.02831 14.6863C7.92714 15.1704 7.23067 15.1704 7.1295 14.6863L6.0285 9.41763C5.99134 9.23983 5.85142 9.1009 5.67233 9.06401L0.365736 7.97089C-0.121912 7.87044 -0.121912 7.17896 0.365736 7.0785L5.67234 5.98538C5.85142 5.94849 5.99134 5.80956 6.0285 5.63176L7.1295 0.36312Z" fill="#F4EDDC"/>
<path d="M13.9508 12.2149C14.0519 11.7308 14.7484 11.7308 14.8496 12.2149L15.2669 14.2118C15.304 14.3896 15.4439 14.5285 15.623 14.5654L17.6343 14.9797C18.1219 15.0802 18.1219 15.7716 17.6343 15.8721L15.623 16.2864C15.4439 16.3233 15.304 16.4622 15.2669 16.64L14.8496 18.6369C14.7484 19.121 14.0519 19.121 13.9508 18.6369L13.5335 16.64C13.4963 16.4622 13.3564 16.3233 13.1773 16.2864L11.1661 15.8721C10.6784 15.7716 10.6784 15.0802 11.1661 14.9797L13.1773 14.5654C13.3564 14.5285 13.4963 14.3896 13.5335 14.2118L13.9508 12.2149Z" fill="#F4EDDC"/>
</svg>
