<svg width="16" height="27" viewBox="0 0 16 27" fill="none" xmlns="http://www.w3.org/2000/svg">
<path id="Union" fill-rule="evenodd" clip-rule="evenodd" d="M7.98339 0C5.21632 0 2.97317 2.31385 2.97317 5.16812V12.2743C2.97317 12.5389 2.99245 12.799 3.02966 13.0529H0.980649C0.435821 13.0529 -0.0304734 13.515 0.00155846 14.1084C0.240933 18.543 3.41426 22.156 7.45253 22.4575L7.45253 26.4866C7.45253 26.7701 7.67536 27 7.95024 27C8.22511 27 8.44794 26.7701 8.44794 26.4866V22.4643C12.5335 22.2152 15.7571 18.5794 15.9984 14.1084C16.0305 13.515 15.5642 13.0529 15.0194 13.0529H12.9371C12.9743 12.799 12.9936 12.5389 12.9936 12.2743V5.16812C12.9936 2.31385 10.7505 0 7.98339 0ZM3.28738 14.0797C3.9973 16.0437 5.83199 17.4424 7.98339 17.4424C10.1348 17.4424 11.9695 16.0437 12.6794 14.0797H15.003C14.7657 18.2309 11.6885 21.4511 8 21.4511C4.31152 21.4511 1.23427 18.2309 0.997005 14.0797H3.28738Z" fill="#022A22"/>
</svg>
