<svg width="1512" height="2728" viewBox="0 0 1512 2728" fill="none" xmlns="http://www.w3.org/2000/svg">
<path fill-rule="evenodd" clip-rule="evenodd" d="M-54.4865 2.97298C-45.0812 -2.81904 -32.7614 0.11011 -26.9693 9.51542C24.3685 92.8798 75.5755 174.753 147.155 236.999C198.99 282.076 262.563 314.871 327.699 323.054C317.736 281.206 320.711 235.278 347.437 198.612L347.439 198.609C367.665 170.871 401.584 156.305 433.511 155.249C465.518 154.19 500.167 166.81 517.617 199.382L517.618 199.384C538.476 238.326 525.068 286.085 497.926 315.125C470.706 344.247 432.131 357.534 396.54 362.473L396.539 362.473C393.365 362.914 390.193 363.296 387.022 363.621C433.598 443.892 510.333 482.635 599.603 508.372C639.552 519.89 681.172 528.578 723.25 537.363C729.93 538.757 736.622 540.154 743.32 541.565C791.776 551.773 840.482 562.704 885.12 578.75C1090.81 652.694 1243.27 834.235 1290.17 1046.02L1290.17 1046.02C1300.43 1092.36 1304.85 1140.27 1301.86 1188.07C1293.85 1315.83 1227.96 1444.33 1115.19 1510.05C1058.47 1543.11 990.187 1557.14 924.446 1550.81C908.222 1573.72 891.303 1595.39 875.34 1615.52L875.34 1615.52C783.359 1731.48 692.905 1847.65 641.963 1982.33C591.102 2116.81 585.689 2272.95 657.959 2392.2C693.688 2451.16 752.39 2497.46 817.639 2520.89C836.257 2527.58 855.283 2532.36 874.353 2535.07C825.579 2457.3 809.258 2361.99 854.319 2269.22C882.023 2212.19 940.439 2159.84 1010.11 2163.03C1064.14 2165.51 1110.84 2201.57 1135.96 2245.86C1166.28 2299.33 1165.67 2362.06 1145.27 2417.17C1124.88 2472.22 1084.12 2521.56 1031.02 2549.05C1007.2 2561.39 982.206 2569.48 956.741 2573.82C970.115 2586.84 984.684 2598.91 1000.23 2609.82C1063.46 2654.21 1174.09 2677.98 1289.79 2685.02C1404.78 2692.01 1519.73 2682.2 1588.69 2663.22C1599.34 2660.29 1610.35 2666.55 1613.28 2677.19C1616.22 2687.84 1609.96 2698.85 1599.31 2701.79C1524.77 2722.3 1405.12 2732.1 1287.37 2724.94C1170.33 2717.83 1050.08 2693.69 977.241 2642.55C950.933 2624.08 926.674 2602.15 905.693 2577.61C871.254 2577.02 836.828 2570.28 804.119 2558.54C730.771 2532.2 664.518 2480.2 623.751 2412.93C543.029 2279.73 550.987 2109.8 604.55 1968.18C658.033 1826.78 752.546 1705.96 844.001 1590.66C856.14 1575.36 868.479 1559.58 880.441 1543.38C831.911 1531.52 786.691 1507.72 750.972 1471.39L750.971 1471.39C701.193 1420.76 671.561 1345.19 687.54 1273.04C705.262 1193.04 788.579 1122.68 877.219 1146.36L877.221 1146.36C925.696 1159.31 964.335 1196.29 985.446 1239.47C1020.52 1311.22 1011.75 1381.64 985.112 1445.32C975.479 1468.36 963.418 1490.74 950.092 1512.26C1000.31 1513.25 1051.39 1500.94 1095.05 1475.49C1194.2 1417.71 1254.6 1302.62 1261.94 1185.57C1264.67 1141.88 1260.65 1097.73 1251.11 1054.67C1207.02 855.571 1063.69 685.449 871.589 616.392C829.828 601.38 783.573 590.923 735.075 580.706C728.509 579.323 721.9 577.944 715.259 576.558C673.283 567.799 630.032 558.774 588.522 546.807C492.111 519.011 400.606 474.146 347.073 374.096L347.072 374.094C345.412 370.989 343.813 367.81 342.284 364.566C260.168 359.773 181.716 320.062 120.907 267.182C43.9966 200.3 -10.1586 113.095 -61.029 30.4902C-66.821 21.0849 -63.8918 8.765 -54.4865 2.97298ZM905.45 1507.79C922.14 1482.62 937.044 1456.59 948.209 1429.89C971.892 1373.26 978.042 1315.41 949.51 1257.04C932.521 1222.28 902.23 1194.44 866.896 1185C805.721 1168.66 740.709 1217.97 726.593 1281.69C714.141 1337.92 737.098 1400.23 779.494 1443.35C813.197 1477.62 857.737 1499.05 905.45 1507.79ZM924.303 2537.27C954.985 2535.53 984.946 2527.87 1012.63 2513.53C1056.08 2491.03 1090.5 2449.88 1107.76 2403.28C1124.99 2356.74 1124.47 2306.7 1101.16 2265.59C1081.19 2230.36 1045.54 2204.7 1008.27 2202.99C960.417 2200.8 913.997 2237.92 890.299 2286.7C848.417 2372.92 869.032 2464.75 924.303 2537.27ZM369.569 324.808C376.739 324.49 383.901 323.843 391.043 322.853C421.823 318.581 450.167 307.643 468.703 287.811C487.317 267.897 493.13 238.386 482.358 218.272C474.187 203.02 456.623 194.506 434.833 195.227C412.962 195.951 391.5 206.078 379.762 222.173C359.82 249.531 358.122 288.12 369.569 324.808Z" fill="#F4EDDC" fill-opacity="0.06"/>
</svg>
