<svg width="25" height="27" viewBox="0 0 25 27" fill="none" xmlns="http://www.w3.org/2000/svg">
<g id="Vector">
<path d="M9.90208 0.516013C10.0426 -0.172004 11.0099 -0.172005 11.1504 0.516012L12.6796 8.00303C12.7312 8.2557 12.9255 8.45312 13.1743 8.50554L20.5445 10.0589C21.2218 10.2017 21.2218 11.1843 20.5445 11.3271L13.1743 12.8804C12.9255 12.9329 12.7312 13.1303 12.6796 13.3829L11.1504 20.87C11.0099 21.558 10.0426 21.558 9.90208 20.87L8.37292 13.3829C8.32131 13.1303 8.12697 12.9329 7.87824 12.8804L0.507967 11.3271C-0.169322 11.1843 -0.169323 10.2017 0.507966 10.0589L7.87824 8.50554C8.12697 8.45312 8.32131 8.25569 8.37292 8.00303L9.90208 0.516013Z" fill="#F35200"/>
<path d="M19.376 17.3581C19.5166 16.6701 20.4839 16.6701 20.6244 17.3581L21.204 20.1957C21.2556 20.4484 21.4499 20.6458 21.6986 20.6982L24.492 21.287C25.1693 21.4297 25.1693 22.4123 24.492 22.5551L21.6986 23.1438C21.4499 23.1963 21.2556 23.3937 21.204 23.6463L20.6244 26.484C20.4839 27.172 19.5166 27.172 19.376 26.484L18.7965 23.6463C18.7449 23.3937 18.5505 23.1963 18.3018 23.1438L15.5084 22.5551C14.8311 22.4123 14.8311 21.4297 15.5084 21.287L18.3018 20.6982C18.5505 20.6458 18.7449 20.4484 18.7965 20.1957L19.376 17.3581Z" fill="#F35200"/>
</g>
</svg>
