<svg width="111" height="68" viewBox="0 0 111 68" fill="none" xmlns="http://www.w3.org/2000/svg">
<g id="logo">
<g id="Group">
<path id="Vector" d="M0.25 19.457H10.6845V23.0716H5.03444V31.7749H9.61534V35.1345H5.03444V51.4719H10.888V55.0865H0.25V19.457Z" fill="#F4EDDC"/>
<path id="Vector_2" d="M13.7051 19.457H18.1338C23.8353 19.457 26.94 23.0202 26.94 30.3479C26.94 37.6756 23.7325 41.5966 18.4917 42.0037V55.0843H13.7072V19.457H13.7051ZM22.1041 30.4508C22.1041 25.7177 20.8828 23.0716 18.4895 23.0716V38.7983C20.8314 38.5434 22.1041 35.0831 22.1041 30.4508Z" fill="#F4EDDC"/>
<path id="Vector_3" d="M29.7598 19.457H34.5442V55.0843H29.7598V19.457Z" fill="#F4EDDC"/>
<path id="Vector_4" d="M37.9727 37.2707C37.9727 23.528 39.7532 18.9985 44.7412 18.9985C49.0671 18.9985 51.2568 22.6624 51.1026 33.3004H46.3181C46.5731 25.4114 45.8596 22.7138 44.7412 22.7138C43.417 22.7138 42.8064 26.3284 42.8064 37.2707C42.8064 48.213 43.417 51.7761 44.7412 51.7761C45.8103 51.7761 46.6759 49.3336 46.421 38.8991H51.2054C51.3575 52.0825 49.0671 55.5428 44.7412 55.5428C39.7017 55.5428 37.9727 51.0648 37.9727 37.2707Z" fill="#F4EDDC"/>
<path id="Vector_5" d="M54.4844 46.0254V19.457H59.2688V46.5846C59.2688 49.9442 59.8795 51.7247 61.1007 51.7247C62.322 51.7247 62.9841 49.9442 62.9841 46.5846V19.457H67.7685V46.0254C67.7685 52.4896 65.5809 55.5428 61.1007 55.5428C56.6206 55.5428 54.4844 52.4896 54.4844 46.0254Z" fill="#F4EDDC"/>
<path id="Vector_6" d="M71.709 19.457H75.9342C81.5843 19.457 85.096 22.9688 85.096 29.178C85.096 34.5731 81.9914 38.6955 77.8176 39.7132L81.1772 40.476L85.5545 55.0843H80.5665L76.4956 40.0196V55.0843H71.7111V19.457H71.709ZM80.258 29.5851C80.258 25.6663 78.7817 23.0695 76.4913 23.0695V37.4742C78.7817 36.5572 80.258 33.3518 80.258 29.5851Z" fill="#F4EDDC"/>
<path id="Vector_7" d="M88.2188 19.457H93.0032V55.0843H88.2188V19.457Z" fill="#F4EDDC"/>
<path id="Vector_8" d="M99.8951 19.457H106.359L110.585 55.0843H105.8L105.087 47.8573H100.812L100.099 55.0843H95.6699L99.8951 19.457ZM104.78 44.3456L102.948 25.4113L101.116 44.3456H104.78Z" fill="#F4EDDC"/>
</g>
<path id="Vector_9" d="M73.982 2.46684C73.8185 2.51553 73.6586 2.58044 73.5007 2.64356C72.4431 3.06553 71.3875 3.49472 70.25 3.67866C70.0344 3.71292 69.8523 3.81931 69.7055 3.97259C69.3133 4.38555 68.8431 4.69392 68.3413 4.9608C67.9082 5.19163 67.4529 5.37737 66.9882 5.54327C67.1239 5.42786 67.2782 5.3413 67.4361 5.25835C68.0978 4.90851 68.7334 4.5208 69.3691 4.12768C69.5215 4.03391 69.6776 3.94013 69.7965 3.80308C69.8226 3.77423 69.8579 3.73997 69.8356 3.7039C69.8095 3.66243 69.7556 3.66964 69.7166 3.68948C69.6237 3.73456 69.5326 3.78505 69.4397 3.83374C69.6181 3.66964 69.8095 3.52718 70.001 3.38291C70.5102 3.00061 71.0195 2.61831 71.4748 2.1729C71.5845 2.0647 71.6923 1.9529 71.7685 1.81765C71.7908 1.77617 71.8261 1.72929 71.7871 1.68601C71.7425 1.63551 71.683 1.66617 71.6384 1.68961C71.5492 1.7383 71.46 1.7906 71.3763 1.8483C71.0083 2.11159 70.644 2.37847 70.2742 2.63995C69.9266 2.8852 69.6125 3.16291 69.3356 3.4821C69.2761 3.54882 69.2111 3.61013 69.1479 3.67505C69.2185 3.52898 69.304 3.39734 69.3858 3.2639C69.9173 2.39831 70.2779 1.45338 70.7072 0.54091C70.7611 0.423695 70.8187 0.308284 70.8392 0.178446C70.8485 0.12074 70.8578 0.0594278 70.8002 0.0215585C70.7388 -0.0199175 70.6775 0.00532875 70.6217 0.0395915C70.5307 0.0972972 70.4526 0.169429 70.3783 0.245168C70.1924 0.436318 70.0363 0.649108 69.895 0.872717C69.5029 1.49666 69.2129 2.16569 68.923 2.83832C68.7762 3.17734 68.6331 3.51816 68.4881 3.85899C68.4509 3.97981 68.3859 4.0862 68.3134 4.18899C68.3041 4.20522 68.2948 4.21965 68.2818 4.23407C68.2837 4.23047 68.2855 4.22686 68.2874 4.22325C68.2781 4.23588 68.2688 4.2485 68.2595 4.26112C68.3283 4.10424 68.3989 3.94915 68.4677 3.79226C68.4807 3.74898 68.4918 3.7039 68.5048 3.66062C68.529 3.52898 68.555 3.39554 68.5792 3.2639C68.5755 3.18816 68.5717 3.11242 68.5643 3.03668C68.5606 2.98799 68.5532 2.93209 68.503 2.91586C68.4472 2.89783 68.397 2.93029 68.3617 2.97176C68.3171 3.02225 68.2744 3.07455 68.2409 3.13226C68.148 3.29095 68.0941 3.46406 68.0253 3.63177C67.8989 3.94014 67.8246 4.26653 67.5161 4.48654C67.3525 4.60375 67.2484 4.80031 67.1202 4.9608C66.9585 5.16458 66.7689 5.3413 66.5385 5.5036C66.5738 5.35032 66.6407 5.23491 66.7113 5.1231C66.9009 4.81834 67.1053 4.5208 67.2856 4.21063C67.9045 3.15209 68.2298 2.00519 68.3431 0.798782C68.3599 0.618452 68.3747 0.438121 68.3376 0.257791C68.3245 0.198282 68.3171 0.127953 68.239 0.11533C68.1684 0.102707 68.1331 0.160413 68.1034 0.207299C68.0495 0.292054 67.9993 0.380416 67.9584 0.470581C67.5291 1.4083 67.2391 2.3947 66.9065 3.36488C66.8358 3.56865 66.7856 3.78144 66.6481 3.99964C66.6723 3.83915 66.6667 3.71653 66.6593 3.5921C66.65 3.46947 66.6351 3.36127 66.453 3.42619C66.5905 2.91225 66.6816 2.40372 66.7615 1.89339C66.7987 1.65896 66.8303 1.42092 66.8135 1.18108C66.808 1.10174 66.821 0.986325 66.7429 0.962882C66.6463 0.93403 66.6016 1.04764 66.557 1.11616C66.2485 1.57781 66.0385 2.08634 65.8526 2.60389C65.5999 3.30898 65.4531 4.03932 65.3267 4.77506C65.2542 5.19884 65.1705 5.62081 65.0274 6.02836C64.9364 6.28984 64.8676 6.56755 64.5572 6.68115C63.8956 6.92099 63.2414 7.18067 62.5611 7.37002C62.5258 7.38084 62.4831 7.4151 62.4329 7.36641C62.6057 7.20772 62.7748 7.04903 62.9477 6.89394C63.4365 6.45574 63.8138 5.94721 64.0071 5.32327C64.0684 5.12671 64.1205 4.92654 64.0796 4.71916C64.0684 4.66146 64.0517 4.59834 63.9922 4.58031C63.9234 4.55867 63.8844 4.61818 63.851 4.66146C63.7599 4.77326 63.693 4.9013 63.6242 5.02753C63.4402 5.36294 63.2637 5.70196 63.0666 6.03197C62.6076 6.80017 61.8827 7.27624 61.1021 7.6892C60.9181 7.78658 60.7211 7.84609 60.5148 7.86232C60.0929 7.89478 59.6971 8.01019 59.3105 8.17068C59.2064 8.21396 59.1004 8.25183 58.9964 8.2915C58.5912 8.44659 58.1544 8.44839 57.7307 8.52954C57.7363 8.43757 57.9258 8.34741 57.7251 8.25544C58.0188 8.02822 58.3143 7.81543 58.5931 7.581C58.9908 7.24739 59.4517 7.05264 59.9573 6.94444C60.5334 6.82181 61.1021 6.67755 61.6374 6.4305C62.1262 6.20508 62.615 5.97606 63.009 5.60458C63.1893 5.43327 63.3399 5.24032 63.3956 4.99326C63.4123 4.91752 63.4309 4.83457 63.3566 4.78228C63.2841 4.73178 63.2135 4.78588 63.1521 4.81834C62.8399 4.98785 62.5295 5.16277 62.1559 5.16999C62.1225 5.16999 62.089 5.18622 62.0556 5.19343C61.7155 5.27999 61.3828 5.38638 61.0185 5.52884C61.1709 5.31245 61.3363 5.15736 61.4738 4.98244C61.6597 4.74982 61.8883 4.58031 62.1671 4.47031C62.4459 4.3603 62.7079 4.22145 62.9607 4.06096C63.5127 3.71292 63.9123 3.22783 64.2506 2.69045C64.3807 2.48307 64.5089 2.27388 64.5572 2.03044C64.5702 1.96552 64.5944 1.88798 64.5182 1.85011C64.4513 1.81765 64.3974 1.87175 64.3491 1.91142C64.1892 2.04667 64.0573 2.20536 63.9234 2.36585C63.8714 2.42897 63.8175 2.48848 63.7339 2.51913C63.4365 2.62913 63.1782 2.80225 62.931 2.9952C62.7637 3.12504 62.5946 3.25488 62.4106 3.39734C62.5964 2.81487 62.7804 2.25585 62.9533 1.69502C63.0146 1.49486 63.0908 1.29649 63.0852 1.0801C63.0852 1.0278 63.0908 0.962882 63.0295 0.946653C62.97 0.930423 62.9347 0.984522 62.9031 1.0278C62.8009 1.17026 62.7377 1.33076 62.6726 1.48945C62.5258 1.8465 62.4143 2.21618 62.2303 2.60569C62.2749 2.02863 62.2805 1.49305 62.2321 0.957472C62.2117 0.739273 62.1931 0.521073 62.1113 0.315497C62.05 0.165823 61.9664 0.149593 61.8474 0.259594C61.7787 0.32271 61.7303 0.398449 61.6894 0.481401C61.5129 0.834848 61.4757 1.21174 61.498 1.59764C61.5259 2.10798 61.643 2.60389 61.7508 3.1016C61.7824 3.24947 61.7991 3.40816 61.7025 3.52898C61.4571 3.83735 61.1616 4.10063 60.8568 4.37834C60.8587 4.29899 60.92 4.25391 60.8995 4.17817C60.8159 4.28276 60.7379 4.37834 60.6486 4.49014C60.6524 4.36571 60.7304 4.27916 60.7155 4.15653C60.6431 4.25752 60.5799 4.34588 60.5167 4.43424C60.6877 3.87882 60.7843 3.32341 60.6468 2.74815C60.6375 3.35947 60.5241 3.95095 60.3104 4.52621C60.3197 4.42522 60.3438 4.32785 60.355 4.22866C60.4275 3.6462 60.4609 3.06193 60.355 2.47946C60.2806 2.0629 60.1691 1.66076 59.8978 1.31633C59.7324 1.10715 59.5279 0.944849 59.2696 0.863701C59.0558 0.795175 58.9573 0.88534 58.9927 1.09993C59.0038 1.16485 59.0205 1.22977 59.0373 1.29469C59.2045 1.91683 59.3421 2.54438 59.435 3.17914C59.5688 4.08079 59.6041 4.98064 59.3885 5.87688C59.2937 6.2682 59.1358 6.62165 58.8049 6.89214C58.4146 7.21313 58.0466 7.55756 57.6638 7.88396C57.463 8.05527 57.253 8.21757 57.017 8.35823C57.0133 8.33298 57.0096 8.32396 57.0114 8.31675C57.0876 8.09134 57.1675 7.86592 57.2419 7.63871C57.7344 6.13656 57.4445 4.76064 56.5226 3.49292C56.307 3.19537 56.0394 2.94111 55.6807 2.80045C55.6045 2.76979 55.5246 2.74815 55.4558 2.79684C55.3796 2.85094 55.4056 2.9357 55.4223 3.00963C55.4669 3.21521 55.5599 3.40636 55.6416 3.59931C55.9465 4.33325 56.281 5.05277 56.5765 5.79032C56.6323 5.93098 56.6118 6.02836 56.504 6.13295C56.2345 6.39263 55.9539 6.63607 55.6639 6.87411C55.4781 7.02739 55.2848 7.17346 55.0952 7.32313C55.322 6.76952 55.413 6.19246 55.5729 5.63344C55.5636 6.04639 55.3907 6.4305 55.3443 6.8687C55.4781 6.68837 55.5543 6.52066 55.6082 6.34213C55.6844 6.08967 55.7569 5.83721 55.7104 5.56852C55.6974 5.49278 55.6863 5.3972 55.5952 5.38819C55.4967 5.37737 55.4595 5.47114 55.4372 5.54868C55.3945 5.69114 55.3573 5.8336 55.3238 5.97787C55.2569 6.2664 55.1844 6.55312 55.0897 6.83444C54.8518 7.53953 54.4224 8.13281 53.928 8.68643C53.7738 8.85954 53.6121 9.02725 53.4169 9.1607C53.7125 8.83069 54.0173 8.5097 54.2756 8.15445C54.5339 7.7956 54.7347 7.41149 54.7904 6.96788C54.7105 7.11755 54.6473 7.27444 54.5711 7.42412C54.4931 7.57559 54.4168 7.72887 54.2719 7.88215C54.2886 7.82445 54.2923 7.80101 54.2998 7.77937C54.5804 6.96608 54.651 6.13115 54.5451 5.28179C54.5339 5.19884 54.5748 5.17179 54.6287 5.13753C54.941 4.94457 55.2421 4.73719 55.48 4.45949C55.5673 4.3585 55.677 4.24489 55.5877 4.10243C55.4967 3.95997 55.3443 4.01046 55.2123 4.04292C54.9261 4.11686 54.651 4.21965 54.389 4.34948C54.2756 4.40539 54.1455 4.36391 54.0433 4.44867C53.6474 4.77687 53.2032 5.04736 52.8203 5.39179C52.7348 5.46934 52.6568 5.55409 52.5527 5.6154C52.5415 5.56671 52.5694 5.53786 52.5862 5.5054C52.8073 5.10146 53.1251 4.77687 53.5061 4.519C54.0024 4.18358 54.402 3.76341 54.7142 3.2657C54.9781 2.84553 55.2086 2.40913 55.2792 1.91142C55.2885 1.84109 55.3015 1.75634 55.2272 1.71847C55.1473 1.67699 55.0878 1.74552 55.0376 1.7942C54.8685 1.9547 54.7328 2.14224 54.6027 2.33159C54.402 2.62012 54.2013 2.91045 53.9912 3.21521C53.995 3.18094 53.9968 3.16652 53.9987 3.15209C54.0024 3.07455 54.0749 2.96455 53.995 2.93209C53.9206 2.90143 53.8723 3.02045 53.824 3.08176C53.4783 3.50374 53.1902 3.96177 52.9449 4.44506C52.8092 4.71375 52.5694 4.90851 52.4059 5.15736C52.155 5.53786 51.9431 5.94 51.7219 6.33853C51.629 6.50804 51.5305 6.67394 51.3855 6.84345C51.4394 6.47918 51.4654 6.14197 51.4617 5.80295C51.458 5.49999 51.4784 5.19163 51.3037 4.91572C51.2703 4.86523 51.2814 4.80392 51.2814 4.74801C51.287 4.37112 51.2573 3.99784 51.2127 3.62456C51.1606 3.20439 51.1067 2.78422 51.0082 2.37126C50.9692 2.21077 50.9023 2.19273 50.7759 2.30274C50.6402 2.41995 50.5622 2.57323 50.5064 2.73914C50.2778 3.40816 50.5231 4.04112 50.6607 4.6831C50.6997 4.41981 50.6421 4.16374 50.6068 3.90587C50.5585 3.55423 50.5324 3.20439 50.6365 2.85815C50.6811 2.71028 50.7276 2.56061 50.8633 2.45421C50.9748 2.72291 51.1662 4.73539 51.0677 4.93015C50.9692 4.4685 50.8744 4.01587 50.7778 3.56144C50.7201 4.23227 50.88 4.88326 50.9302 5.54327C50.9004 5.5054 50.8856 5.46573 50.8707 5.42606C50.7109 4.99687 50.5808 4.55686 50.3689 4.14571C50.1551 3.73095 49.9377 3.3198 49.5697 3.00602C49.5214 2.96635 49.4749 2.90684 49.4061 2.93029C49.3318 2.95553 49.3281 3.03668 49.3206 3.1016C49.2946 3.31619 49.3113 3.53079 49.3485 3.74177C49.5455 4.86523 49.9563 5.91836 50.5213 6.91198C50.6514 7.1428 50.7555 7.35559 50.6532 7.61887C50.6384 7.65674 50.6421 7.70363 50.6384 7.74691C50.6049 8.08953 50.499 8.40691 50.2983 8.69364C50.1143 8.95692 49.9265 9.2202 49.763 9.49431C49.5808 9.80087 49.3206 9.99382 48.9824 10.1056C48.4434 10.286 47.8933 10.4248 47.3375 10.542C47.029 10.6069 46.7186 10.6665 46.3804 10.735C46.4473 10.6105 46.5049 10.5168 46.5495 10.4194C46.6387 10.2264 46.7781 10.102 46.9844 10.0227C47.4844 9.82972 47.9434 9.56103 48.3839 9.26168C48.488 9.19135 48.5772 9.17873 48.6943 9.20397C48.9155 9.25086 49.1366 9.30496 49.3652 9.26348C49.4563 9.24725 49.5585 9.22922 49.5827 9.12283C49.6069 9.02004 49.5325 8.95151 49.4563 8.89741C49.3708 8.8361 49.276 8.78561 49.1794 8.7261C49.5827 8.31855 49.96 7.90019 50.3298 7.4728C50.3893 7.40428 50.4488 7.33395 50.5064 7.26362C50.5269 7.23837 50.5547 7.20952 50.5324 7.17346C50.5064 7.13198 50.4618 7.141 50.4265 7.15001C50.38 7.16264 50.3354 7.18247 50.2927 7.20592C50.1143 7.29969 49.9507 7.4133 49.7909 7.53231C49.421 7.80822 49.0642 8.10216 48.7092 8.3961C48.6441 8.45019 48.5846 8.5097 48.4787 8.50069C48.2315 8.47724 47.9825 8.4538 47.7204 8.55298C47.752 8.48085 47.7725 8.42855 47.7948 8.37806C48.0661 7.7451 48.3969 7.13739 48.7036 6.52066C48.7909 6.34394 48.8672 6.16361 48.8857 5.96524C48.8913 5.91295 48.8876 5.85705 48.8374 5.82278C48.7817 5.78672 48.724 5.80114 48.6701 5.8318C48.5679 5.89131 48.4861 5.97426 48.4174 6.06803C48.2761 6.25738 48.1683 6.46476 48.0642 6.67574C47.9472 6.90837 47.8338 7.1428 47.7204 7.37543C47.7836 6.88853 47.897 6.41607 47.9341 5.93098C47.9546 5.67491 47.9676 5.41704 47.8765 5.16818C47.8579 5.11949 47.8412 5.06179 47.778 5.05277C47.7055 5.04376 47.6777 5.10326 47.6498 5.15195C47.5643 5.29441 47.5253 5.4513 47.4844 5.60819C47.3338 6.20148 47.2706 6.80919 47.1926 7.4169C47.122 7.40067 47.0792 7.35198 47.029 7.31772C46.9008 7.22936 46.7744 7.13919 46.6294 7.07608C46.3451 6.95345 46.1759 7.06346 46.1945 7.36641C46.2057 7.54133 46.2707 7.70543 46.3729 7.84428C46.5495 8.08593 46.6443 8.33298 46.5365 8.62511C46.5309 8.64135 46.5365 8.66298 46.5328 8.68282C46.503 9.03446 46.4677 9.38611 46.4027 9.73415C46.3302 10.1164 46.1276 10.3779 45.7355 10.5132C45.3098 10.6592 44.8879 10.8179 44.4586 10.9532C43.8397 11.1497 43.1985 11.2868 42.6019 11.5501C42.5592 11.5681 42.5071 11.5663 42.4588 11.5699C42.4309 11.5717 42.3937 11.5699 42.3826 11.5411C42.3696 11.5104 42.4012 11.4906 42.4198 11.4689C42.5127 11.3571 42.6279 11.2688 42.7487 11.1858C43.1242 10.9279 43.5479 10.7584 43.9605 10.5691C44.3322 10.3978 44.6761 10.1868 44.9251 9.85857C44.9865 9.77742 45.0404 9.69087 45.0552 9.58988C45.0738 9.46726 45.0143 9.41676 44.8935 9.45283C44.756 9.4925 44.6352 9.56824 44.5107 9.63496C44.3768 9.70529 44.2449 9.77742 44.1129 9.84956C44.3006 9.61332 44.4976 9.39873 44.7021 9.18775C45.0218 8.85774 45.347 8.53495 45.663 8.20134C45.7373 8.12199 45.8358 8.01199 45.7355 7.89838C45.6444 7.79379 45.5217 7.85871 45.4232 7.90199C45.2151 7.99035 45.0348 8.1256 44.8601 8.26626C44.4029 8.63593 44.0107 9.06332 43.6241 9.5466C43.6371 9.47447 43.6464 9.4366 43.652 9.39693C43.6892 9.16611 43.7338 8.93709 43.7691 8.70626C43.8193 8.38527 43.652 8.07871 43.7319 7.76133C43.7412 7.71986 43.7394 7.67477 43.7338 7.6333C43.7189 7.53592 43.7375 7.39526 43.6334 7.36821C43.5238 7.34116 43.4754 7.47461 43.4271 7.55936C43.0554 8.19954 42.9011 8.89561 42.916 9.62054C42.9253 10.0551 42.8398 10.4356 42.5406 10.771C42.364 10.9676 42.232 11.2002 42.1038 11.4311C42.0741 11.487 42.0388 11.5356 41.9867 11.5753C41.55 11.9143 41.0314 12.0893 40.5073 12.275C40.6207 11.7484 40.6969 11.2363 40.7099 10.7151C40.7396 9.55021 40.3177 8.51511 39.7434 7.5233C39.723 7.48723 39.7007 7.43313 39.6486 7.44576C39.5947 7.45838 39.5873 7.51428 39.5799 7.56297C39.5594 7.71625 39.5854 7.86592 39.6096 8.0174C39.7044 8.58544 39.8642 9.14086 39.9795 9.70529C40.0464 10.0299 40.1226 10.3545 40.1449 10.6917C40.13 10.6845 40.1244 10.6845 40.1226 10.6809C40.0482 10.5691 39.9739 10.4573 39.9014 10.3437C39.3345 9.44201 38.619 8.6702 37.7287 8.05888C37.5094 7.9074 37.2808 7.76494 37.0188 7.69281C36.8478 7.64592 36.7753 7.71445 36.8087 7.88576C36.831 7.99937 36.8794 8.10396 36.9314 8.20675C37.2176 8.76938 37.6209 9.24906 38.0726 9.69087C38.658 10.2625 39.3029 10.7674 39.9646 11.2525C40.3642 11.5447 40.3976 12.2588 39.8717 12.5148C39.7527 12.5725 39.6375 12.6339 39.5167 12.688C38.8866 12.9675 38.2677 13.2704 37.6823 13.6311C37.6191 13.6708 37.5522 13.7068 37.4983 13.7735C37.6488 13.7952 37.7566 13.7267 37.8644 13.6617C38.5242 13.2632 39.2082 12.9062 39.9293 12.623C40.6746 12.3309 41.444 12.0911 42.1521 11.7142C42.2265 11.6745 42.3101 11.6583 42.3956 11.6763C42.5815 11.7124 42.7543 11.6763 42.9272 11.6114C43.507 11.404 44.0925 11.2147 44.6854 11.0433C44.9047 10.9802 45.1258 10.9604 45.3545 10.9947C45.5831 11.0289 45.8135 11.056 46.044 11.0037C46.7651 10.8414 47.4955 10.7169 48.2074 10.5168C48.8337 10.3401 49.4638 10.1669 49.9897 9.763C49.9934 9.7612 50.0046 9.77021 50.012 9.77201C49.9897 9.94513 49.8764 10.0804 49.7797 10.2445C50.0288 10.1814 50.2481 10.111 50.473 10.0732C51.7665 9.85677 53.0527 9.5989 54.3462 9.37168C55.0841 9.24184 55.8052 9.02905 56.5523 8.95512C56.9092 8.92086 57.1917 8.75676 57.45 8.53495C57.4965 8.49347 57.543 8.452 57.5894 8.41052C57.595 8.41413 57.6006 8.41954 57.6043 8.42314C57.5467 8.51151 57.4872 8.59987 57.4315 8.68643C57.463 8.72069 57.4872 8.70446 57.5095 8.69905C58.1767 8.57102 58.8551 8.48446 59.4926 8.2374C59.7472 8.13822 60.013 8.06789 60.2844 8.0174C60.6932 7.94166 61.1059 7.87855 61.5092 7.78117C62.4069 7.56117 63.3008 7.32313 64.1688 7.00395C64.9903 6.70279 65.8229 6.4323 66.6871 6.2664C66.9585 6.2141 67.2336 6.16721 67.5346 6.18344C67.4566 6.24295 67.3822 6.25197 67.3135 6.2664C66.4362 6.45394 65.5739 6.69558 64.7189 6.96247C63.8918 7.22034 63.0908 7.55215 62.2433 7.7433C62.1113 7.77215 61.9812 7.80822 61.827 7.84609C62.0556 7.92363 62.2768 7.85871 62.4849 7.92002C62.2898 8.12199 62.0816 8.19413 61.8251 8.03002C61.7415 7.97593 61.6337 7.95609 61.5408 7.91461C61.4776 7.88576 61.4181 7.89117 61.3549 7.9074C60.7843 8.06609 60.2119 8.21576 59.645 8.38708C59.1581 8.53495 58.6693 8.67561 58.1582 8.72069C57.9519 8.73872 57.7511 8.78561 57.556 8.84872C56.8423 9.08135 56.1063 9.22381 55.3759 9.38791C54.0228 9.69087 52.6549 9.91808 51.2982 10.2102C49.7723 10.5384 48.2241 10.7765 46.687 11.056C45.3061 11.3066 43.9308 11.5699 42.6 12.0171C41.6577 12.3345 40.7229 12.6681 39.801 13.0396C39.2658 13.256 38.9033 13.6491 38.6301 14.1667C38.7454 14.1288 38.8011 14.0603 38.8569 13.9972C39.1747 13.6509 39.5408 13.366 39.9813 13.1803C41.6039 12.4914 43.271 11.9378 44.9957 11.5465C45.4567 11.4419 45.9027 11.3896 46.3748 11.5032C47.3933 11.7466 48.4267 11.9161 49.4768 11.9612C50.0157 11.9847 50.5566 11.9937 51.0863 11.8711C51.2201 11.8404 51.3521 11.8025 51.4654 11.7232C51.5509 11.6637 51.5472 11.6132 51.4431 11.5753C51.3595 11.5429 51.2721 11.5338 51.1829 11.5248C50.4785 11.4545 49.7686 11.4653 49.0642 11.4094C48.423 11.3589 47.7799 11.3301 47.1387 11.2633C47.1238 11.2633 47.1089 11.2633 47.0941 11.2633C46.9788 11.2615 46.8599 11.2579 46.7093 11.2561C46.819 11.2056 46.8915 11.2002 46.9658 11.2038C47.9267 11.0235 48.8876 10.8378 49.8503 10.6646C50.196 10.6015 50.5417 10.506 50.8967 10.5276C51.4376 10.5601 51.9487 10.7151 52.4375 10.9369C52.917 11.1551 53.3556 11.4437 53.8147 11.7015C54.6789 12.1848 55.5915 12.5311 56.5895 12.6375C56.7977 12.6591 57.0114 12.688 57.2103 12.5888C57.3088 12.5401 57.372 12.4607 57.3608 12.3471C57.3497 12.2353 57.2586 12.2065 57.1638 12.1848C57.1155 12.174 57.069 12.1614 57.0207 12.1524C56.5654 12.0532 56.1044 11.972 55.6621 11.8224C55.0859 11.6276 54.5544 11.3427 54.0042 11.0938C53.4132 10.8269 52.8203 10.5637 52.1754 10.4356C51.9914 10.3996 51.8056 10.3689 51.6197 10.3364C52.2033 10.2102 52.7757 10.1579 53.2998 10.5168C53.3556 10.5546 53.4188 10.5817 53.4801 10.6124C53.889 10.8089 54.3295 10.9045 54.7644 11.0271C55.4539 11.2201 56.1416 11.4184 56.8683 11.4419C57.1768 11.4509 57.4872 11.4852 57.7883 11.395C57.8905 11.3643 58.002 11.3192 58.0113 11.1948C58.0225 11.0758 57.9258 11.0217 57.8366 10.9694C57.6192 10.8414 57.3738 10.7891 57.1304 10.7296C56.9278 10.6809 56.7233 10.6376 56.5208 10.5907C56.7382 10.506 56.9594 10.4519 57.175 10.3887C57.2586 10.3635 57.3144 10.3671 57.3813 10.4302C57.4909 10.5348 57.6173 10.4933 57.6563 10.3509C57.6917 10.2228 57.6675 10.1038 57.5783 10.001C57.5002 9.90907 57.4054 9.83333 57.2995 9.77201C57.0077 9.60431 56.701 9.46906 56.3683 9.39332C56.3907 9.36086 56.4222 9.36086 56.4501 9.36627C56.61 9.39512 56.7679 9.42578 56.9278 9.45463C56.9538 9.46004 56.9891 9.47988 57.0077 9.44922C57.0337 9.40955 56.9947 9.38611 56.9687 9.36988C56.898 9.3266 56.8237 9.28693 56.7271 9.23463C57.2363 9.10119 57.714 8.9443 58.2139 8.87397C58.4035 8.84692 58.5838 8.87758 58.764 8.93889C59.0856 9.04889 59.3848 9.19676 59.6599 9.39152C60.684 10.111 61.7489 10.7548 62.9496 11.1642C63.2878 11.2796 63.6261 11.3968 63.9829 11.4473C64.0982 11.4635 64.2338 11.4978 64.3063 11.3806C64.3844 11.2561 64.2821 11.1551 64.2097 11.0632C64.0944 10.9135 63.9495 10.7909 63.7989 10.6755C62.7321 9.86218 61.5203 9.3266 60.2286 8.94971C59.8718 8.84512 59.5056 8.79462 59.1339 8.72249C59.1674 8.67561 59.2138 8.66839 59.2529 8.65757C59.7881 8.50069 60.3234 8.3456 60.8587 8.19052C61.1616 8.10216 61.4088 8.18691 61.6058 8.41954C61.8121 8.66298 62.0389 8.88659 62.3176 9.0561C62.8585 9.38611 63.4495 9.57726 64.074 9.68906C64.6409 9.79005 65.2133 9.84054 65.7895 9.79005C65.9214 9.77742 66.0534 9.75398 66.163 9.67464C66.3061 9.57185 66.3099 9.4384 66.1742 9.33201C66.0422 9.22922 65.888 9.16791 65.7318 9.1102C64.9568 8.82528 64.152 8.64856 63.3436 8.48085L63.0871 8.43577C63.0982 8.43396 63.1075 8.43216 63.1187 8.43036C63.1187 8.43036 63.1168 8.43036 63.115 8.43036C63.115 8.43036 63.1187 8.43036 63.1205 8.43036C63.1874 8.41774 63.2562 8.40331 63.3231 8.43036C63.8231 8.43757 64.3249 8.45019 64.8211 8.37085C64.9661 8.34741 65.1129 8.32396 65.2412 8.24822C65.362 8.17609 65.362 8.07691 65.2412 8.00298C65.1352 7.93806 65.0126 7.92002 64.8918 7.90379C64.7486 7.88396 64.6 7.90379 64.4569 7.86592C64.5182 7.67297 64.442 7.59182 64.2097 7.59904C63.9439 7.60805 63.6874 7.67658 63.4291 7.72887C63.2116 7.77215 62.9942 7.80642 62.7451 7.7956C62.7841 7.77396 62.8009 7.76133 62.8176 7.75592C63.3993 7.56838 63.9662 7.34116 64.5479 7.15362C65.5516 6.83083 66.5663 6.69919 67.622 6.84165C68.3171 6.93722 69.0141 7.03821 69.7166 7.07968C70.2184 7.10854 70.7165 7.10493 71.2109 6.99673C71.3261 6.97149 71.4395 6.94083 71.538 6.87411C71.644 6.80198 71.6477 6.73345 71.5454 6.65951C71.4711 6.60542 71.3838 6.56935 71.2945 6.5423C70.6087 6.3241 69.9006 6.26279 69.1869 6.24476C68.7892 6.23394 68.3915 6.24295 67.9956 6.23935C67.951 6.23935 67.8655 6.25017 67.8673 6.20869C67.8729 6.07524 67.7688 6.10049 67.7001 6.08426C67.5755 6.0518 67.4473 6.05361 67.3191 6.05902C66.8786 6.07705 66.4585 6.18705 66.0366 6.29885C65.9511 6.3223 65.8657 6.35476 65.7653 6.34574C65.8303 6.28262 65.8972 6.24475 65.9679 6.21049C66.5477 5.92016 67.1462 5.66229 67.741 5.40261C67.925 5.32327 68.1108 5.31245 68.3022 5.36294C68.4342 5.39901 68.5643 5.44229 68.6944 5.48917C69.2483 5.69114 69.8077 5.87328 70.4006 5.92016C70.7927 5.95082 71.1867 5.96344 71.5622 5.81918C71.6755 5.7759 71.8075 5.7236 71.8075 5.58114C71.8075 5.45311 71.6774 5.41163 71.5752 5.37015C70.776 5.03654 69.9303 4.89588 69.068 4.82556C69.0271 4.82195 68.9825 4.83638 68.9379 4.80211C69.1386 4.65785 69.3375 4.51899 69.5177 4.3585C69.9582 3.96538 69.9582 3.96718 70.5604 4.02309C71.0399 4.06817 71.5194 4.11325 72.0008 4.04833C72.8037 3.94013 73.497 3.63177 74.0099 3.00061C74.0954 2.89602 74.1679 2.78241 74.1939 2.64717C74.2237 2.48487 74.1567 2.41815 73.9913 2.46684H73.982ZM69.817 3.17012C70.2853 2.7175 70.8318 2.36585 71.3856 2.02322C70.8652 2.59126 70.2296 3.02766 69.6125 3.50554C69.6571 3.36849 69.7222 3.26029 69.817 3.16832V3.17012ZM68.8171 3.39734C69.1944 2.61471 69.5066 1.80142 69.9508 1.04944C70.1757 0.668944 70.4322 0.387629 70.6794 0.241561C70.5251 0.578779 70.382 0.892554 70.2389 1.20633C70.1404 1.42272 70.0344 1.63732 69.9452 1.85732C69.8504 2.08995 69.7036 2.2847 69.5401 2.47766C69.278 2.78602 69.055 3.11963 68.8338 3.45685C68.7985 3.53259 68.7502 3.60111 68.6851 3.65702C68.7148 3.56144 68.752 3.47308 68.8152 3.39373L68.8171 3.39734ZM68.3915 3.14668C68.5178 3.51636 67.9658 4.71014 67.5105 5.04195C67.9194 4.44145 68.0959 3.77603 68.3915 3.14668ZM67.5309 4.64162C67.4436 4.84359 67.2986 5.00408 67.1481 5.16458C67.2466 4.97162 67.3822 4.80211 67.5309 4.64162ZM55.0711 1.96913C55.112 2.59667 53.9745 4.21965 53.3054 4.49195C53.9169 3.67505 54.4392 2.80045 55.0711 1.96913ZM53.8853 3.22422C53.7143 3.67866 53.3909 4.04112 53.0973 4.42162C53.3221 3.99784 53.5712 3.5921 53.8853 3.22422ZM39.407 10.5997C38.7472 10.102 38.1153 9.57545 37.5949 8.93528C37.3366 8.6161 37.1135 8.27708 37.0002 7.87314C38.2045 8.45921 39.0483 9.40414 39.7713 10.4699C39.3773 10.0479 38.9814 9.62775 38.5 9.29234C38.9554 9.82431 39.4349 10.3364 39.8252 10.9225C39.6858 10.8143 39.5464 10.7061 39.4052 10.5997H39.407ZM40.3958 11.9991C40.4218 10.5763 39.985 9.22922 39.7211 7.8551C40.4014 9.16791 40.7322 10.533 40.3958 11.9991ZM45.5069 8.02281C45.4381 8.24462 44.8879 8.81085 44.6352 8.93348C44.6036 8.8884 44.6835 8.86495 44.6556 8.81987C44.4976 8.86676 44.4047 9.01643 44.2523 9.07233C44.6277 8.68282 45.0162 8.30954 45.5069 8.02461V8.02281ZM44.3452 9.33381C44.1575 9.5448 43.9698 9.75759 43.7821 9.96857C43.9159 9.7071 44.1185 9.50873 44.3452 9.33381ZM43.9178 10.1489C44.2263 9.95415 44.5441 9.77742 44.9065 9.58808C44.7727 9.83513 44.5999 9.98661 44.4103 10.1237C44.0943 10.3527 43.7301 10.4987 43.3806 10.6737C43.2803 10.7242 43.1799 10.7728 43.0573 10.8324C43.1167 10.7007 43.2152 10.625 43.3137 10.5546C43.5126 10.414 43.7133 10.2769 43.9178 10.1471V10.1489ZM43.5554 7.67838C43.5702 8.1779 43.2468 9.09578 43.0777 9.41857C43.0573 8.92807 43.31 7.98855 43.5554 7.67838ZM42.5629 10.9225C43.087 10.1886 43.297 9.3284 43.6018 8.50429C43.5572 9.21119 43.3509 9.86398 42.9439 10.4537C42.8268 10.6232 42.7041 10.7891 42.5833 10.9568C42.509 11.065 42.4365 11.1732 42.3306 11.2561C42.3993 11.1389 42.4662 11.0217 42.5629 10.9225ZM45.2838 10.8468C45.4976 10.7602 45.6983 10.6827 45.9306 10.6196C45.7447 10.9153 45.57 10.9748 45.2838 10.8468ZM49.3597 8.99119C49.3968 9.02004 49.4489 9.0525 49.4303 9.10299C49.4173 9.14266 49.3634 9.15168 49.3188 9.1607C49.1794 9.18955 48.8541 9.15889 48.672 9.09397C48.7147 9.0561 48.7463 9.02725 48.7798 8.9984C48.9991 8.81266 49.1292 8.81085 49.3597 8.99119ZM50.0213 7.56477C49.4563 8.37806 48.672 8.94069 47.8022 9.40594C48.4899 8.73331 49.2352 8.1256 50.0213 7.56477ZM48.4044 8.6179C48.12 8.85774 47.8487 9.07053 47.5606 9.26529C47.7334 9.02364 47.9509 8.82167 48.1683 8.62151C48.2259 8.56921 48.3096 8.59987 48.4044 8.6179ZM47.8412 8.6738C47.7799 8.7261 47.7204 8.77659 47.6331 8.85053C47.6777 8.73151 47.739 8.68102 47.8412 8.6738ZM48.4322 6.32049C48.4973 6.2141 48.5679 6.11311 48.685 6.01033C48.6924 6.15098 48.6441 6.26098 48.5939 6.36197C48.3096 6.94444 48.0104 7.52149 47.7297 8.10576C47.49 8.60347 47.2502 9.10119 46.9565 9.57365C46.9064 9.653 46.8469 9.72693 46.7911 9.80447C46.7763 9.79726 46.7632 9.79005 46.7484 9.78103C47.3766 8.65757 47.7557 7.42231 48.4322 6.32049ZM47.7316 5.35573C47.8301 6.14197 47.5959 6.87771 47.3561 7.61166C47.3636 6.84165 47.4732 6.08787 47.7316 5.35573ZM46.4138 7.63871C46.3599 7.51969 46.3246 7.39887 46.3395 7.26542C46.3469 7.19329 46.3748 7.16083 46.451 7.18969C46.7186 7.28526 46.9435 7.44034 47.1089 7.66756C47.1368 7.70543 47.1368 7.74871 47.135 7.79199C47.1201 8.44118 47.0104 9.07053 46.6759 9.64578C46.6053 9.76661 46.5848 9.79365 46.49 9.86218C46.6294 9.38791 46.5662 8.89381 46.6685 8.3997C46.7781 8.49888 46.8506 8.61069 46.977 8.69905C46.9435 8.51511 46.8599 8.37265 46.767 8.2338C46.6387 8.04084 46.5086 7.8515 46.412 7.64231L46.4138 7.63871ZM45.9715 10.8396C46.1704 10.5673 46.2726 10.2553 46.5458 10.066C46.4268 10.3996 46.1834 10.7224 45.9715 10.8396ZM63.1094 5.0131C63.1484 4.99507 63.1912 4.98605 63.2432 4.96802C63.2023 5.13392 63.115 5.25835 63.0146 5.37376C62.7265 5.70376 62.3641 5.93459 61.9664 6.12033C61.4218 6.3764 60.8512 6.55853 60.2528 6.65771C60.2175 6.66312 60.1691 6.69919 60.1431 6.64329C60.1431 6.64329 60.1394 6.64329 60.1375 6.64329L60.1394 6.63968C59.9944 6.69378 59.8495 6.74607 59.7063 6.80017C60.0818 6.61263 60.4461 6.40345 60.8215 6.21771C61.5947 5.83721 62.3269 5.38278 63.1075 5.0149L63.1094 5.0131ZM61.7879 5.50901C61.1876 5.86606 60.5762 6.20328 59.9349 6.4864C60.4498 5.97787 61.1151 5.73622 61.7879 5.50901ZM62.0333 4.33867C62.1058 4.22145 62.602 3.82292 62.8195 3.72194C62.5908 3.96899 62.3195 4.16374 62.0333 4.33867ZM64.3193 2.18732C64.2152 2.75717 63.0982 4.00505 62.4589 4.2485C62.8343 3.91489 63.2172 3.58669 63.496 3.16832C63.7339 2.81127 64.0108 2.48848 64.3193 2.18913V2.18732ZM63.4086 2.85455C63.2506 3.06553 62.2321 4.01227 62.0853 4.0826C62.1374 3.93292 62.1894 3.80128 62.2935 3.70751C62.6299 3.39734 62.9979 3.12685 63.4086 2.85455ZM62.8957 1.28567C62.8864 1.7942 62.0983 3.85899 61.8214 4.11145C62.2061 3.17914 62.4738 2.21437 62.8957 1.28567ZM61.9385 0.378612C62.1634 1.06206 62.1132 1.75634 62.0184 2.45602C61.9887 2.24142 61.9608 2.02683 61.9311 1.81224C61.8344 2.20536 61.9032 2.60389 61.853 2.99881C61.7155 2.12241 61.4367 1.24239 61.9385 0.380416V0.378612ZM60.8605 4.629C61.1263 4.32965 61.4218 4.05735 61.7471 3.76161C61.7117 4.1421 61.6002 4.44506 61.3512 4.69752C60.9776 5.07802 60.565 5.41704 60.1375 5.73803C60.0093 5.8336 59.8829 5.93098 59.7472 6.03557C59.7472 5.95983 59.7918 5.90573 59.8272 5.85164C60.1208 5.40442 60.5055 5.02753 60.8605 4.629ZM59.5911 3.10881C59.5038 2.48126 59.3644 1.86453 59.1841 1.25502C59.1636 1.18649 59.1042 1.09452 59.1748 1.04403C59.2398 0.998948 59.3272 1.06206 59.3922 1.09813C59.7547 1.2983 59.9535 1.62289 60.0743 1.99437C60.2453 2.51733 60.2937 3.05652 60.2472 3.60111C60.1896 4.28457 60.065 4.95179 59.7417 5.57212C59.6822 5.68573 59.6171 5.79573 59.5539 5.90754C59.7733 4.97523 59.7212 4.04112 59.5911 3.10701V3.10881ZM55.5747 2.95373C55.768 3.00242 55.8926 3.09078 56.0078 3.18996C56.5077 3.61915 56.8181 4.16555 57.0393 4.76424C57.175 5.13212 57.2549 5.51442 57.2865 5.90393C57.2902 5.94721 57.2995 5.98869 57.2735 6.04279C57.1248 5.46032 56.9631 4.89588 56.6397 4.39457C56.9482 5.35392 57.2883 6.30426 57.175 7.33575C56.8218 5.82459 56.097 4.43965 55.5766 2.95193L55.5747 2.95373ZM54.3964 4.51178C54.6994 4.37473 55.0023 4.24489 55.3313 4.18178C55.3759 4.17276 55.4279 4.15833 55.4502 4.20342C55.4688 4.23948 55.4261 4.27194 55.4037 4.3008C55.1696 4.60916 54.8443 4.81474 54.5154 5.02392C54.4615 4.87244 54.441 4.71916 54.3629 4.58572C54.3406 4.54604 54.3555 4.52801 54.3945 4.50998L54.3964 4.51178ZM54.0098 4.76244C54.0154 4.74441 54.0191 4.72457 54.0265 4.70834C54.0544 4.64342 54.0786 4.54785 54.1511 4.54604C54.231 4.54424 54.2477 4.64342 54.2663 4.70834C54.3815 5.11048 54.4038 5.52343 54.4076 5.93819C54.4113 6.54771 54.3388 7.14821 54.1455 7.72887C54.0563 7.99757 53.9206 8.24462 53.7626 8.48085C53.7236 8.57282 53.6548 8.64134 53.5693 8.70085C53.6251 8.6161 53.6809 8.52954 53.7366 8.44478C54.0265 7.79019 54.0897 7.10673 54.0117 6.40525C53.9336 6.96427 53.8518 7.52149 53.6809 8.06429C53.6901 7.85691 53.7013 7.64953 53.7069 7.44215C53.7255 6.82362 53.7162 6.20328 53.8202 5.58835C53.8686 5.31064 53.9188 5.03294 54.0098 4.76424V4.76244ZM52.5192 5.21146C52.352 5.48737 52.1736 5.75426 52.0174 6.0518C52.0174 5.89311 52.3222 5.38097 52.5192 5.21146ZM51.0175 7.46739C51.1253 6.74607 51.1309 6.01393 51.2498 5.29261C51.3075 6.03016 51.3502 6.76771 51.0175 7.46739ZM51.0268 5.5595C51.0324 5.66409 51.0584 5.76868 51.0008 5.8841C50.9859 5.76327 50.9803 5.65868 51.0268 5.5595ZM50.1812 4.92293C50.3726 5.59376 50.5789 6.26098 50.6718 6.95886C50.0306 5.76688 49.4991 4.53703 49.3894 3.13406C49.5065 3.18996 49.5567 3.25308 49.6106 3.31078C49.9767 3.71472 50.2072 4.1944 50.406 4.68851C50.6625 5.32507 50.8428 5.98147 50.8744 6.66673C50.8781 6.7605 50.8744 6.85608 50.8595 6.95345C50.7053 6.25377 50.499 5.57032 50.1812 4.92293ZM50.0009 9.53218C49.947 9.61873 49.8745 9.68906 49.7555 9.77382C49.8485 9.62414 49.9154 9.50513 49.9934 9.39152C50.3633 8.85053 50.7369 8.30954 51.1086 7.77035C51.1197 7.75412 51.1346 7.7433 51.1476 7.72887C51.8966 6.45754 52.9207 5.34491 53.7868 4.86703C53.7478 5.07802 53.7087 5.27999 53.6716 5.48376C53.6623 5.53786 53.6102 5.55589 53.5749 5.58655C52.9058 6.14738 52.2535 6.72804 51.6104 7.31592C51.4506 7.46198 51.313 7.63149 51.1662 7.79019C50.7462 8.35101 50.3689 8.93889 50.0027 9.53398L50.0009 9.53218ZM52.1921 9.6548C51.7052 9.77201 51.2108 9.83693 50.7146 9.89644C50.4878 9.92349 50.2611 9.95956 50.0325 10.0245C50.0641 9.95776 50.1012 9.90907 50.1105 9.85497C50.2016 9.34463 50.525 8.94791 50.8038 8.52954C51.3316 7.73609 52.0453 7.10854 52.759 6.48279C53.0285 6.24836 53.3036 6.01754 53.6028 5.76327C53.5898 6.05902 53.5712 6.31689 53.5656 6.57476C53.5582 7.05985 53.5508 7.54674 53.5545 8.03183C53.5619 8.91545 52.8389 9.49972 52.1903 9.6548H52.1921ZM55.5487 9.002C54.9261 9.13725 54.2923 9.20938 53.6753 9.36627C53.5266 9.40414 53.3779 9.44201 53.1958 9.4889C53.3575 9.35004 53.4987 9.23643 53.6325 9.11381C53.9912 8.782 54.3332 8.43036 54.6176 8.03904C54.8871 7.66936 55.2123 7.3592 55.5729 7.07608C55.9539 6.77853 56.3145 6.45574 56.6824 6.1077C56.8479 6.58738 57.0393 7.04362 57.0523 7.53592C57.0616 7.89297 56.872 8.18691 56.6378 8.45741C56.3498 8.78741 55.9613 8.91545 55.5506 9.00561L55.5487 9.002ZM57.2196 8.452C57.0579 8.58003 56.8813 8.68102 56.7233 8.76397C56.8664 8.65938 57.03 8.53675 57.1936 8.41593C57.7456 7.96691 58.3013 7.51969 58.8495 7.06526C59.1488 6.81821 59.4238 6.54771 59.6543 6.23574C59.7008 6.17262 59.7584 6.11852 59.8272 6.08246C60.2899 5.84803 60.6691 5.50901 61.0482 5.16999C61.1356 5.08523 61.2211 5.00228 61.3084 4.91752C61.2527 5.03474 61.1653 5.1213 61.0687 5.20064C60.7081 5.6118 60.2862 5.96344 59.8587 6.30426C59.199 6.83083 58.6154 7.44215 57.924 7.93445C57.6861 8.10396 57.4538 8.27708 57.2177 8.44839L57.2196 8.452ZM61.5947 7.66576C61.55 7.68379 61.5073 7.70182 61.4627 7.71986C61.4571 7.71264 61.4515 7.70543 61.4441 7.69641C61.682 7.5269 61.9106 7.34657 62.1559 7.19149C62.7414 6.82001 63.141 6.30426 63.4384 5.70016C63.5833 5.40442 63.7506 5.11949 63.9272 4.7949C63.9439 5.05097 63.8695 5.24753 63.8008 5.44409C63.5629 6.12393 63.0666 6.61443 62.5221 7.06706C62.2377 7.30329 61.9441 7.5251 61.5928 7.66576H61.5947ZM51.1235 11.6673C51.1235 11.6673 51.1365 11.6781 51.1569 11.6943C50.906 11.7863 50.6514 11.8097 50.3968 11.8224C49.3411 11.8729 48.3003 11.7484 47.2651 11.5591C47.2409 11.5555 47.2186 11.5465 47.1944 11.5393C48.5047 11.6763 49.8187 11.5483 51.1235 11.6673ZM51.7554 10.4338C52.4728 10.5691 53.153 10.8125 53.8072 11.1263C54.2198 11.3247 54.6269 11.5338 55.0395 11.7304C55.6491 12.0207 56.2996 12.183 56.9612 12.3111C57.043 12.3273 57.1266 12.3345 57.2047 12.385C57.1304 12.4932 57.0133 12.4932 56.9036 12.4986C56.5468 12.513 56.2011 12.4373 55.8554 12.3598C54.9763 12.1632 54.2031 11.7394 53.443 11.2922C52.7609 10.8919 52.0416 10.5853 51.248 10.4681C51.2405 10.4681 51.235 10.4591 51.2182 10.4446C51.4041 10.3942 51.5825 10.3996 51.7572 10.4338H51.7554ZM57.6322 11.056C57.7028 11.083 57.8125 11.1065 57.805 11.1804C57.7995 11.2435 57.6842 11.2417 57.6136 11.2543C57.2177 11.3247 56.82 11.2868 56.4241 11.2435C55.978 11.1948 55.5413 11.1047 55.1138 10.9658C55.6974 10.9568 56.2754 11.0271 56.859 11.0433C56.2717 10.8684 55.6602 10.8306 55.0562 10.7332C55.19 10.6989 55.3276 10.7025 55.4632 10.7007C55.6008 10.7007 55.7383 10.6953 55.8758 10.7043C56.4761 10.7476 57.0672 10.8324 57.6303 11.0542L57.6322 11.056ZM57.5021 10.2878C57.3701 10.075 57.1638 9.95956 56.965 9.8207C57.3348 9.83513 57.5207 9.99562 57.5021 10.2878ZM56.7382 9.85316C56.9018 9.96317 57.0597 10.0822 57.2121 10.2427C56.8404 10.3184 56.4873 10.3725 56.1323 10.4068C55.7773 10.441 55.4205 10.4591 55.0581 10.4627C55.2439 10.3851 55.4279 10.3058 55.6138 10.2283C55.9204 10.1002 56.2271 9.97579 56.5319 9.84775C56.6044 9.8171 56.6676 9.80808 56.7382 9.85497V9.85316ZM56.4929 9.71431C55.9929 9.87841 55.5153 10.0371 55.0581 10.2463C54.9112 10.313 54.7551 10.3653 54.6231 10.4537C54.3258 10.652 54.0284 10.6304 53.718 10.4969C53.4634 10.3869 53.2013 10.2914 52.943 10.1868C52.8241 10.1399 52.6958 10.1273 52.5508 10.0966C52.6735 10.0443 52.7906 10.0389 52.9003 10.0263C53.8202 9.91808 54.7291 9.74857 55.6286 9.52857C56.0004 9.4384 56.1621 9.47447 56.4929 9.71431ZM59.6134 8.92807C59.6134 8.92807 59.619 8.92987 59.6227 8.93168C60.985 9.26709 62.2544 9.80087 63.4049 10.5907C63.6502 10.7584 63.8807 10.9424 64.0666 11.1732C64.0907 11.2038 64.1428 11.2363 64.1112 11.2796C64.087 11.312 64.0368 11.2868 64.0015 11.2796C63.403 11.175 62.8399 10.9622 62.286 10.7278C61.3475 10.3328 60.4907 9.79906 59.6301 9.26889C59.5 9.18775 59.3681 9.1084 59.2417 9.02184C60.4479 9.33021 61.5166 9.91628 62.5462 10.5799C61.6783 9.79365 60.6226 9.33742 59.5335 8.94069L59.0298 8.81085C59.0335 8.79823 59.0373 8.7838 59.041 8.77118C59.2175 8.80905 59.3941 8.84512 59.5632 8.90643C59.58 8.90463 59.5985 8.91725 59.6153 8.92627L59.6134 8.92807ZM63.5424 8.672C64.3602 8.8379 65.1705 9.03086 65.9307 9.3789C65.9995 9.40955 66.1147 9.43299 66.1035 9.50693C66.0924 9.58628 65.9772 9.59349 65.8972 9.60791C65.5125 9.67464 65.1241 9.6548 64.7375 9.62054C63.9792 9.55382 63.2451 9.38791 62.5741 9.02004C62.3288 8.88659 62.102 8.73151 61.9106 8.52954C61.7842 8.3979 61.656 8.27167 61.5333 8.13281C61.9905 8.37085 62.366 8.74233 62.8771 8.89922C63.3752 9.0525 63.877 9.17692 64.3937 9.24725C63.7599 8.96414 63.035 8.90463 62.4589 8.47724C62.8195 8.54036 63.1819 8.59626 63.5406 8.6702L63.5424 8.672ZM65.0851 8.11298C64.5386 8.31314 63.968 8.27347 63.3993 8.24462C63.955 8.13101 64.4996 7.90379 65.0851 8.11298ZM64.1632 7.7956C63.5387 7.92363 62.9756 8.14363 62.3567 8.22658C62.5908 7.9597 63.7246 7.68379 64.1632 7.7956ZM71.4023 6.72804C71.3299 6.80919 71.2611 6.8128 71.1998 6.82722C70.7481 6.93722 70.2872 6.94083 69.8263 6.9246C69.1776 6.90296 68.5364 6.79296 67.8915 6.72624C67.5607 6.69197 67.2298 6.66853 66.899 6.64148C68.4026 6.16541 69.8895 6.31869 71.4023 6.72804ZM66.6555 1.25502C66.702 1.61207 66.3303 3.64259 65.9307 4.21243C66.0794 3.5921 66.2541 3.00602 66.3006 2.39651C66.0292 3.22242 65.8136 4.06276 65.5255 4.88326C65.4642 4.16555 66.1073 2.10798 66.6555 1.25502ZM65.2839 5.80475C65.5478 5.42245 65.7932 5.02933 66.0088 4.61998C66.0943 4.38194 66.176 4.1421 66.2634 3.90587C66.3061 3.79407 66.3823 3.7021 66.479 3.61915C66.5459 3.84276 66.3452 4.7967 66.1705 5.05638C66.2299 4.74982 66.2597 4.4685 66.2541 4.18538C66.2411 4.18538 66.2299 4.18178 66.2169 4.17997C66.176 4.33145 66.1333 4.48293 66.0924 4.63441C66.0311 5.38097 65.6408 5.94721 65.046 6.40886C65.1018 6.19426 65.1575 5.98328 65.2821 5.80295L65.2839 5.80475ZM65.2672 6.45574C65.3453 6.31689 65.4307 6.23213 65.52 6.15639C66.1017 5.67311 66.4381 5.03835 66.7169 4.36752C67.031 3.61013 67.2484 2.82209 67.5123 2.04847C67.6963 1.51109 67.8841 0.973702 68.1405 0.463368C68.1573 0.429105 68.1777 0.398449 68.2112 0.33894C68.2242 0.658124 68.1833 0.937636 68.1405 1.21354C67.9342 2.53356 67.4547 3.74898 66.676 4.85261C66.5403 5.04376 66.4288 5.25114 66.3043 5.4495C66.0497 5.85344 65.7095 6.17623 65.2653 6.45394L65.2672 6.45574ZM71.3354 5.44589C71.38 5.46393 71.4284 5.48015 71.4692 5.5054C71.5176 5.53425 71.6012 5.54868 71.5993 5.60458C71.5993 5.66589 71.5139 5.67311 71.4618 5.69114C71.2574 5.76327 71.0436 5.78852 70.8262 5.79032C70.3188 5.79754 69.8318 5.68393 69.3486 5.54507C69.0903 5.47114 68.8338 5.38458 68.5773 5.30343C68.529 5.2872 68.4807 5.26737 68.4342 5.24753C69.2984 5.34851 70.1459 5.52884 71.012 5.58835C70.8262 5.47655 70.6143 5.45311 70.4117 5.40442C70.2017 5.35392 69.988 5.32146 69.7761 5.27999C69.5679 5.23851 69.3616 5.19523 69.1553 5.15556C68.9434 5.11589 68.7297 5.07982 68.5123 5.04195C68.6219 4.98425 68.7427 4.98785 68.8598 4.98785C69.7129 4.99507 70.54 5.13933 71.3354 5.44589ZM73.9021 2.88701C73.5193 3.39193 72.9858 3.66243 72.3762 3.81571C71.9915 3.91309 71.5975 3.93112 71.2016 3.92571C71.1905 3.92571 71.1793 3.90948 71.1496 3.88784C71.2518 3.8644 71.3373 3.84276 71.4228 3.82292C71.4246 3.8139 71.4265 3.80669 71.4284 3.79767L71.1496 3.74898C71.5603 3.63538 71.9804 3.62456 72.3911 3.49111C72.2926 3.43521 72.1978 3.4821 72.1086 3.45685C72.3707 3.24045 73.6995 2.6634 74.0322 2.62192C74.0248 2.72832 73.9597 2.80766 73.9003 2.88701H73.9021Z" fill="#F4EDDC"/>
<g id="Group_2">
<g id="Group_3">
<path id="Vector_10" d="M15.2676 63.5093H15.7818V66.6589H17.7294V67.1067H15.2676V63.5093Z" fill="#F4EDDC"/>
<path id="Vector_11" d="M18.9863 65.3093C18.9863 64.2551 19.7984 63.4688 20.904 63.4688C22.0095 63.4688 22.8109 64.2508 22.8109 65.3093C22.8109 66.3677 21.9988 67.1498 20.904 67.1498C19.8091 67.1498 18.9863 66.3634 18.9863 65.3093ZM22.2967 65.3093C22.2967 64.5122 21.701 63.9273 20.904 63.9273C20.1069 63.9273 19.5006 64.5122 19.5006 65.3093C19.5006 66.1063 20.0962 66.6912 20.904 66.6912C21.7117 66.6912 22.2967 66.1063 22.2967 65.3093Z" fill="#F4EDDC"/>
<path id="Vector_12" d="M24.332 65.3093C24.332 64.2465 25.1441 63.4688 26.239 63.4688C26.7939 63.4688 27.276 63.6594 27.6059 64.028L27.2717 64.3515C26.9931 64.058 26.6546 63.9251 26.2582 63.9251C25.4462 63.9251 24.8441 64.5101 24.8441 65.3071C24.8441 66.1042 25.4462 66.6891 26.2582 66.6891C26.6546 66.6891 26.9931 66.5498 27.2717 66.2584L27.6059 66.582C27.276 66.9526 26.7939 67.1476 26.2347 67.1476C25.1462 67.1476 24.332 66.372 24.332 65.3071V65.3093Z" fill="#F4EDDC"/>
<path id="Vector_13" d="M31.5751 66.2068H29.6639L29.2675 67.1067H28.7383L30.3667 63.5093H30.8745L32.5093 67.1067H31.9693L31.573 66.2068H31.5751ZM31.3951 65.7976L30.6195 64.0342L29.8439 65.7976H31.3951Z" fill="#F4EDDC"/>
<path id="Vector_14" d="M34.0742 63.5093H34.5884V66.6589H36.5361V67.1067H34.0742V63.5093Z" fill="#F4EDDC"/>
<path id="Vector_15" d="M43.1743 66.6609V67.1087H40.5625V63.5112H43.1015V63.959H41.0767V65.0646H42.8808V65.5017H41.0767V66.663H43.1743V66.6609Z" fill="#F4EDDC"/>
<path id="Vector_16" d="M45.7498 63.9571H44.5156V63.5093H47.4917V63.9571H46.2576V67.1067H45.7476V63.9571H45.7498Z" fill="#F4EDDC"/>
<path id="Vector_17" d="M51.4922 63.5093H52.0064V67.1067H51.4922V63.5093Z" fill="#F4EDDC"/>
<path id="Vector_18" d="M57.2074 63.5093V67.1067H56.7853L54.6256 64.4242V67.1067H54.1113V63.5093H54.5334L56.691 66.1918V63.5093H57.2053H57.2074Z" fill="#F4EDDC"/>
<path id="Vector_19" d="M60.0291 63.9571H58.7949V63.5093H61.771V63.9571H60.5369V67.1067H60.0269V63.9571H60.0291Z" fill="#F4EDDC"/>
<path id="Vector_20" d="M65.9712 66.6609V67.1087H63.3594V63.5112H65.8984V63.959H63.8736V65.0646H65.6777V65.5017H63.8736V66.663H65.9712V66.6609Z" fill="#F4EDDC"/>
<path id="Vector_21" d="M67.832 63.5093H68.3463V66.6589H70.2939V67.1067H67.832V63.5093Z" fill="#F4EDDC"/>
<path id="Vector_22" d="M71.9141 63.5093H72.4283V66.6589H74.3759V67.1067H71.9141V63.5093Z" fill="#F4EDDC"/>
<path id="Vector_23" d="M75.9941 63.5093H76.5084V67.1067H75.9941V63.5093Z" fill="#F4EDDC"/>
<path id="Vector_24" d="M81.1078 65.2875H81.6006V66.6909C81.2407 66.9952 80.7415 67.1473 80.2379 67.1473C79.1324 67.1473 78.3203 66.3717 78.3203 65.3068C78.3203 64.2419 79.1324 63.4663 80.2487 63.4663C80.8186 63.4663 81.3028 63.657 81.6306 64.0212L81.3114 64.3405C81.0136 64.0534 80.675 63.9248 80.2679 63.9248C79.4345 63.9248 78.8345 64.5055 78.8345 65.3068C78.8345 66.1081 79.4366 66.6888 80.2637 66.6888C80.5679 66.6888 80.8486 66.6224 81.1057 66.4574V65.2854L81.1078 65.2875Z" fill="#F4EDDC"/>
<path id="Vector_25" d="M86.2232 66.6609V67.1087H83.6113V63.5112H86.1503V63.959H84.1256V65.0646H85.9296V65.5017H84.1256V66.663H86.2232V66.6609Z" fill="#F4EDDC"/>
<path id="Vector_26" d="M91.1761 63.5093V67.1067H90.7541L88.5943 64.4242V67.1067H88.0801V63.5093H88.5022L90.6598 66.1918V63.5093H91.174H91.1761Z" fill="#F4EDDC"/>
<path id="Vector_27" d="M93.9978 63.9571H92.7637V63.5093H95.7398V63.9571H94.5056V67.1067H93.9957V63.9571H93.9978Z" fill="#F4EDDC"/>
</g>
<path id="Vector_28" d="M110.749 64.8833H99.6992V65.45H110.749V64.8833Z" fill="#F4EDDC"/>
<path id="Vector_29" d="M11.3 64.8833H0.25V65.45H11.3V64.8833Z" fill="#F4EDDC"/>
</g>
</g>
</svg>
