<svg width="27" height="26" viewBox="0 0 27 26" fill="none" xmlns="http://www.w3.org/2000/svg">
<path fill-rule="evenodd" clip-rule="evenodd" d="M25.8451 18.4344C26.3069 18.1314 26.4356 17.5115 26.1326 17.0497C25.8296 16.5879 25.2097 16.4592 24.7479 16.7622C24.0371 17.2286 23.33 17.6957 22.6244 18.1619C20.8788 19.3151 19.1422 20.4625 17.3806 21.5778C17.1527 21.7221 16.9565 21.8532 16.7673 21.9795L16.7672 21.9796C16.5123 22.1498 16.2703 22.3115 15.9808 22.4855C15.5208 22.762 15.1075 22.96 14.7192 23.0527C14.182 23.1808 13.8503 23.7202 13.9785 24.2574C14.1066 24.7946 14.646 25.1262 15.1832 24.9981C15.8636 24.8358 16.4816 24.518 17.0112 24.1996C17.3132 24.0181 17.6547 23.7915 17.958 23.5902L17.958 23.5902C18.1421 23.4681 18.312 23.3553 18.4505 23.2676C20.2294 22.1412 21.9914 20.9772 23.7435 19.8197L23.7439 19.8194C24.4457 19.3557 25.146 18.8931 25.8451 18.4344ZM16.6908 0.420812C17.2061 0.619567 17.4627 1.19841 17.2639 1.71369C15.0281 7.51028 12.6939 13.394 10.0432 19.0489C9.80881 19.549 9.21339 19.7644 8.71332 19.53C8.21325 19.2956 7.99788 18.7002 8.23229 18.2001C10.8513 12.6128 13.1643 6.78469 15.3979 0.993933C15.5967 0.478652 16.1755 0.222057 16.6908 0.420812ZM2.47911 5.94485C3.02928 5.99317 3.43611 6.47834 3.38779 7.0285C3.27719 8.28782 3.18707 9.57705 3.0963 10.8757L3.09629 10.8758C2.97755 12.5744 2.85769 14.2892 2.6894 15.9741C2.63451 16.5236 2.14452 16.9246 1.59497 16.8697C1.04542 16.8148 0.644417 16.3248 0.699307 15.7753C0.868689 14.0794 0.981747 12.4516 1.0961 10.8051L1.0961 10.805C1.18582 9.51324 1.27633 8.21 1.39546 6.85353C1.44378 6.30336 1.92895 5.89653 2.47911 5.94485Z" fill="#F35200"/>
</svg>
